%TF.GenerationSoftware,KiCad,Pcbnew,(6.0.6)*%
%TF.CreationDate,2022-07-03T21:37:38+02:00*%
%TF.ProjectId,stencil,7374656e-6369-46c2-9e6b-696361645f70,rev?*%
%TF.SameCoordinates,Original*%
%TF.FileFunction,Soldermask,Top*%
%TF.FilePolarity,Negative*%
%FSLAX46Y46*%
G04 Gerber Fmt 4.6, Leading zero omitted, Abs format (unit mm)*
G04 Created by KiCad (PCBNEW (6.0.6)) date 2022-07-03 21:37:38*
%MOMM*%
%LPD*%
G01*
G04 APERTURE LIST*
G04 Aperture macros list*
%AMRoundRect*
0 Rectangle with rounded corners*
0 $1 Rounding radius*
0 $2 $3 $4 $5 $6 $7 $8 $9 X,Y pos of 4 corners*
0 Add a 4 corners polygon primitive as box body*
4,1,4,$2,$3,$4,$5,$6,$7,$8,$9,$2,$3,0*
0 Add four circle primitives for the rounded corners*
1,1,$1+$1,$2,$3*
1,1,$1+$1,$4,$5*
1,1,$1+$1,$6,$7*
1,1,$1+$1,$8,$9*
0 Add four rect primitives between the rounded corners*
20,1,$1+$1,$2,$3,$4,$5,0*
20,1,$1+$1,$4,$5,$6,$7,0*
20,1,$1+$1,$6,$7,$8,$9,0*
20,1,$1+$1,$8,$9,$2,$3,0*%
G04 Aperture macros list end*
%ADD10RoundRect,0.155000X-0.212500X-0.155000X0.212500X-0.155000X0.212500X0.155000X-0.212500X0.155000X0*%
%ADD11RoundRect,0.155000X0.155000X-0.212500X0.155000X0.212500X-0.155000X0.212500X-0.155000X-0.212500X0*%
%ADD12RoundRect,0.237500X-0.300000X-0.237500X0.300000X-0.237500X0.300000X0.237500X-0.300000X0.237500X0*%
%ADD13RoundRect,0.160000X0.160000X-0.197500X0.160000X0.197500X-0.160000X0.197500X-0.160000X-0.197500X0*%
%ADD14RoundRect,0.237500X0.237500X-0.250000X0.237500X0.250000X-0.237500X0.250000X-0.237500X-0.250000X0*%
%ADD15RoundRect,0.237500X-0.250000X-0.237500X0.250000X-0.237500X0.250000X0.237500X-0.250000X0.237500X0*%
%ADD16RoundRect,0.237500X-0.237500X0.250000X-0.237500X-0.250000X0.237500X-0.250000X0.237500X0.250000X0*%
%ADD17RoundRect,0.237500X0.300000X0.237500X-0.300000X0.237500X-0.300000X-0.237500X0.300000X-0.237500X0*%
%ADD18RoundRect,0.250001X0.624999X-0.462499X0.624999X0.462499X-0.624999X0.462499X-0.624999X-0.462499X0*%
%ADD19RoundRect,0.160000X-0.160000X0.197500X-0.160000X-0.197500X0.160000X-0.197500X0.160000X0.197500X0*%
%ADD20RoundRect,0.237500X-0.237500X0.287500X-0.237500X-0.287500X0.237500X-0.287500X0.237500X0.287500X0*%
%ADD21RoundRect,0.225000X0.225000X-0.475000X0.225000X0.475000X-0.225000X0.475000X-0.225000X-0.475000X0*%
%ADD22R,1.560000X0.650000*%
%ADD23R,0.400000X1.350000*%
%ADD24R,0.900000X1.700000*%
%ADD25C,0.550000*%
%ADD26RoundRect,0.237500X0.250000X0.237500X-0.250000X0.237500X-0.250000X-0.237500X0.250000X-0.237500X0*%
%ADD27RoundRect,0.150000X-0.150000X0.650000X-0.150000X-0.650000X0.150000X-0.650000X0.150000X0.650000X0*%
%ADD28RoundRect,0.087500X0.325000X0.087500X-0.325000X0.087500X-0.325000X-0.087500X0.325000X-0.087500X0*%
%ADD29RoundRect,0.087500X0.087500X0.325000X-0.087500X0.325000X-0.087500X-0.325000X0.087500X-0.325000X0*%
%ADD30R,2.700000X2.700000*%
%ADD31RoundRect,0.237500X0.237500X-0.300000X0.237500X0.300000X-0.237500X0.300000X-0.237500X-0.300000X0*%
%ADD32R,0.909599X0.254800*%
%ADD33R,0.254800X0.909599*%
%ADD34R,3.098800X3.098800*%
%ADD35RoundRect,0.050000X-0.387500X-0.050000X0.387500X-0.050000X0.387500X0.050000X-0.387500X0.050000X0*%
%ADD36RoundRect,0.050000X-0.050000X-0.387500X0.050000X-0.387500X0.050000X0.387500X-0.050000X0.387500X0*%
%ADD37R,3.200000X3.200000*%
%ADD38RoundRect,0.155000X-0.155000X0.212500X-0.155000X-0.212500X0.155000X-0.212500X0.155000X0.212500X0*%
%ADD39R,1.400000X1.200000*%
%ADD40RoundRect,0.155000X0.212500X0.155000X-0.212500X0.155000X-0.212500X-0.155000X0.212500X-0.155000X0*%
%ADD41R,1.500000X2.000000*%
%ADD42R,3.800000X2.000000*%
%ADD43RoundRect,0.237500X-0.237500X0.300000X-0.237500X-0.300000X0.237500X-0.300000X0.237500X0.300000X0*%
%ADD44RoundRect,0.250000X0.550000X-1.500000X0.550000X1.500000X-0.550000X1.500000X-0.550000X-1.500000X0*%
G04 APERTURE END LIST*
D10*
%TO.C,C15*%
X243307500Y-82460000D03*
X244442500Y-82460000D03*
%TD*%
D11*
%TO.C,C11*%
X234875000Y-85317500D03*
X234875000Y-84182500D03*
%TD*%
D12*
%TO.C,C3*%
X57137500Y-84000000D03*
X58862500Y-84000000D03*
%TD*%
D11*
%TO.C,C8*%
X236375000Y-85317500D03*
X236375000Y-84182500D03*
%TD*%
D13*
%TO.C,R5*%
X241375000Y-97597500D03*
X241375000Y-96402500D03*
%TD*%
D10*
%TO.C,C16*%
X237907500Y-82250000D03*
X239042500Y-82250000D03*
%TD*%
D14*
%TO.C,R7*%
X146250000Y-99912500D03*
X146250000Y-98087500D03*
%TD*%
D10*
%TO.C,C13*%
X243307500Y-91900000D03*
X244442500Y-91900000D03*
%TD*%
D15*
%TO.C,R1*%
X49087500Y-78000000D03*
X50912500Y-78000000D03*
%TD*%
D14*
%TO.C,R9*%
X133500000Y-104412500D03*
X133500000Y-102587500D03*
%TD*%
%TO.C,R7*%
X56000000Y-96912500D03*
X56000000Y-95087500D03*
%TD*%
D16*
%TO.C,R6*%
X56000000Y-80087500D03*
X56000000Y-81912500D03*
%TD*%
D17*
%TO.C,C5*%
X54862500Y-93000000D03*
X53137500Y-93000000D03*
%TD*%
%TO.C,C4*%
X58862500Y-93000000D03*
X57137500Y-93000000D03*
%TD*%
D18*
%TO.C,STEP1*%
X141500000Y-104737500D03*
X141500000Y-101762500D03*
%TD*%
D19*
%TO.C,FB1*%
X239375000Y-69902500D03*
X239375000Y-71097500D03*
%TD*%
D20*
%TO.C,D1*%
X238125000Y-104125000D03*
X238125000Y-105875000D03*
%TD*%
D21*
%TO.C,SW2*%
X240025000Y-110000000D03*
X240025000Y-104000000D03*
X243725000Y-110000000D03*
X243725000Y-104000000D03*
%TD*%
D22*
%TO.C,U2*%
X232025000Y-70550000D03*
X232025000Y-71500000D03*
X232025000Y-72450000D03*
X234725000Y-72450000D03*
X234725000Y-71500000D03*
X234725000Y-70550000D03*
%TD*%
D11*
%TO.C,C10*%
X237875000Y-85317500D03*
X237875000Y-84182500D03*
%TD*%
D16*
%TO.C,R8*%
X141250000Y-98087500D03*
X141250000Y-99912500D03*
%TD*%
D13*
%TO.C,R1*%
X240375000Y-101097500D03*
X240375000Y-99902500D03*
%TD*%
D23*
%TO.C,J3*%
X239175000Y-68225000D03*
X238525000Y-68225000D03*
X237875000Y-68225000D03*
X237225000Y-68225000D03*
X236575000Y-68225000D03*
D24*
X235050000Y-65550000D03*
D25*
X235875000Y-67700000D03*
X239875000Y-67700000D03*
D24*
X240700000Y-65550000D03*
%TD*%
D26*
%TO.C,R5*%
X151912500Y-90500000D03*
X150087500Y-90500000D03*
%TD*%
D27*
%TO.C,U4*%
X235780000Y-74900000D03*
X234510000Y-74900000D03*
X233240000Y-74900000D03*
X231970000Y-74900000D03*
X231970000Y-82100000D03*
X233240000Y-82100000D03*
X234510000Y-82100000D03*
X235780000Y-82100000D03*
%TD*%
D14*
%TO.C,R2*%
X143750000Y-87912500D03*
X143750000Y-86087500D03*
%TD*%
D13*
%TO.C,R3*%
X242875000Y-97597500D03*
X242875000Y-96402500D03*
%TD*%
D28*
%TO.C,U1*%
X55962500Y-88975000D03*
X55962500Y-88325000D03*
X55962500Y-87675000D03*
X55962500Y-87025000D03*
D29*
X54975000Y-86037500D03*
X54325000Y-86037500D03*
X53675000Y-86037500D03*
X53025000Y-86037500D03*
D28*
X52037500Y-87025000D03*
X52037500Y-87675000D03*
X52037500Y-88325000D03*
X52037500Y-88975000D03*
D29*
X53025000Y-89962500D03*
X53675000Y-89962500D03*
X54325000Y-89962500D03*
X54975000Y-89962500D03*
D30*
X54000000Y-88000000D03*
%TD*%
D26*
%TO.C,R3*%
X58912500Y-99000000D03*
X57087500Y-99000000D03*
%TD*%
D31*
%TO.C,C6*%
X148750000Y-87862500D03*
X148750000Y-86137500D03*
%TD*%
D32*
%TO.C,U1*%
X142652900Y-91500000D03*
X142652900Y-91999999D03*
X142652900Y-92500001D03*
X142652900Y-93000000D03*
X142652900Y-93499999D03*
X142652900Y-94000001D03*
X142652900Y-94500000D03*
D33*
X143500000Y-95347100D03*
X143999999Y-95347100D03*
X144500001Y-95347100D03*
X145000000Y-95347100D03*
X145499999Y-95347100D03*
X146000001Y-95347100D03*
X146500000Y-95347100D03*
D32*
X147347100Y-94500000D03*
X147347100Y-94000001D03*
X147347100Y-93499999D03*
X147347100Y-93000000D03*
X147347100Y-92500001D03*
X147347100Y-91999999D03*
X147347100Y-91500000D03*
D33*
X146500000Y-90652900D03*
X146000001Y-90652900D03*
X145499999Y-90652900D03*
X145000000Y-90652900D03*
X144500001Y-90652900D03*
X143999999Y-90652900D03*
X143500000Y-90652900D03*
D34*
X145000000Y-93000000D03*
%TD*%
D15*
%TO.C,R4*%
X150087500Y-95500000D03*
X151912500Y-95500000D03*
%TD*%
%TO.C,R2*%
X57087500Y-78000000D03*
X58912500Y-78000000D03*
%TD*%
D10*
%TO.C,C4*%
X243307500Y-88500000D03*
X244442500Y-88500000D03*
%TD*%
D26*
%TO.C,R4*%
X50912500Y-99000000D03*
X49087500Y-99000000D03*
%TD*%
D35*
%TO.C,U1*%
X234437500Y-88400000D03*
X234437500Y-88800000D03*
X234437500Y-89200000D03*
X234437500Y-89600000D03*
X234437500Y-90000000D03*
X234437500Y-90400000D03*
X234437500Y-90800000D03*
X234437500Y-91200000D03*
X234437500Y-91600000D03*
X234437500Y-92000000D03*
X234437500Y-92400000D03*
X234437500Y-92800000D03*
X234437500Y-93200000D03*
X234437500Y-93600000D03*
D36*
X235275000Y-94437500D03*
X235675000Y-94437500D03*
X236075000Y-94437500D03*
X236475000Y-94437500D03*
X236875000Y-94437500D03*
X237275000Y-94437500D03*
X237675000Y-94437500D03*
X238075000Y-94437500D03*
X238475000Y-94437500D03*
X238875000Y-94437500D03*
X239275000Y-94437500D03*
X239675000Y-94437500D03*
X240075000Y-94437500D03*
X240475000Y-94437500D03*
D35*
X241312500Y-93600000D03*
X241312500Y-93200000D03*
X241312500Y-92800000D03*
X241312500Y-92400000D03*
X241312500Y-92000000D03*
X241312500Y-91600000D03*
X241312500Y-91200000D03*
X241312500Y-90800000D03*
X241312500Y-90400000D03*
X241312500Y-90000000D03*
X241312500Y-89600000D03*
X241312500Y-89200000D03*
X241312500Y-88800000D03*
X241312500Y-88400000D03*
D36*
X240475000Y-87562500D03*
X240075000Y-87562500D03*
X239675000Y-87562500D03*
X239275000Y-87562500D03*
X238875000Y-87562500D03*
X238475000Y-87562500D03*
X238075000Y-87562500D03*
X237675000Y-87562500D03*
X237275000Y-87562500D03*
X236875000Y-87562500D03*
X236475000Y-87562500D03*
X236075000Y-87562500D03*
X235675000Y-87562500D03*
X235275000Y-87562500D03*
D37*
X237875000Y-91000000D03*
%TD*%
D12*
%TO.C,C4*%
X150137500Y-93000000D03*
X151862500Y-93000000D03*
%TD*%
D11*
%TO.C,C2*%
X242875000Y-85317500D03*
X242875000Y-84182500D03*
%TD*%
D38*
%TO.C,C9*%
X239875000Y-96432500D03*
X239875000Y-97567500D03*
%TD*%
D19*
%TO.C,R2*%
X240375000Y-84152500D03*
X240375000Y-85347500D03*
%TD*%
D11*
%TO.C,C3*%
X233375000Y-85317500D03*
X233375000Y-84182500D03*
%TD*%
D39*
%TO.C,Y1*%
X236475000Y-99650000D03*
X234275000Y-99650000D03*
X234275000Y-101350000D03*
X236475000Y-101350000D03*
%TD*%
D21*
%TO.C,SW1*%
X232525000Y-110000000D03*
X232525000Y-104000000D03*
X236225000Y-110000000D03*
X236225000Y-104000000D03*
%TD*%
D17*
%TO.C,C3*%
X139862500Y-95500000D03*
X138137500Y-95500000D03*
%TD*%
D40*
%TO.C,C17*%
X232442500Y-92200000D03*
X231307500Y-92200000D03*
%TD*%
D17*
%TO.C,C8*%
X49862500Y-89000000D03*
X48137500Y-89000000D03*
%TD*%
D14*
%TO.C,R8*%
X52000000Y-96912500D03*
X52000000Y-95087500D03*
%TD*%
D38*
%TO.C,C5*%
X231875000Y-99932500D03*
X231875000Y-101067500D03*
%TD*%
D31*
%TO.C,C5*%
X141250000Y-87862500D03*
X141250000Y-86137500D03*
%TD*%
D10*
%TO.C,C1*%
X243307500Y-87000000D03*
X244442500Y-87000000D03*
%TD*%
D13*
%TO.C,R6*%
X241875000Y-101097500D03*
X241875000Y-99902500D03*
%TD*%
D10*
%TO.C,C14*%
X240875000Y-71500000D03*
X242010000Y-71500000D03*
%TD*%
D31*
%TO.C,C2*%
X140000000Y-93362500D03*
X140000000Y-91637500D03*
%TD*%
D41*
%TO.C,U3*%
X243675000Y-73850000D03*
D42*
X241375000Y-80150000D03*
D41*
X241375000Y-73850000D03*
X239075000Y-73850000D03*
%TD*%
D19*
%TO.C,R7*%
X236875000Y-71402500D03*
X236875000Y-72597500D03*
%TD*%
D14*
%TO.C,R1*%
X137500000Y-93412500D03*
X137500000Y-91587500D03*
%TD*%
D38*
%TO.C,C7*%
X238375000Y-96432500D03*
X238375000Y-97567500D03*
%TD*%
D17*
%TO.C,C7*%
X49862500Y-87000000D03*
X48137500Y-87000000D03*
%TD*%
D11*
%TO.C,C12*%
X241625000Y-85317500D03*
X241625000Y-84182500D03*
%TD*%
D16*
%TO.C,R10*%
X131000000Y-102587500D03*
X131000000Y-104412500D03*
%TD*%
D19*
%TO.C,R4*%
X239125000Y-84152500D03*
X239125000Y-85347500D03*
%TD*%
D12*
%TO.C,C2*%
X53137500Y-84000000D03*
X54862500Y-84000000D03*
%TD*%
%TO.C,C1*%
X49137500Y-84000000D03*
X50862500Y-84000000D03*
%TD*%
D16*
%TO.C,R6*%
X148500000Y-98087500D03*
X148500000Y-99912500D03*
%TD*%
D18*
%TO.C,EN1*%
X145500000Y-104737500D03*
X145500000Y-101762500D03*
%TD*%
D16*
%TO.C,R5*%
X52000000Y-80087500D03*
X52000000Y-81912500D03*
%TD*%
D38*
%TO.C,C6*%
X238875000Y-99932500D03*
X238875000Y-101067500D03*
%TD*%
D16*
%TO.C,R3*%
X146250000Y-86087500D03*
X146250000Y-87912500D03*
%TD*%
D43*
%TO.C,C1*%
X143750000Y-98137500D03*
X143750000Y-99862500D03*
%TD*%
D44*
%TO.C,C7*%
X145500000Y-80800000D03*
X145500000Y-75200000D03*
%TD*%
D13*
%TO.C,R8*%
X236875000Y-97597500D03*
X236875000Y-96402500D03*
%TD*%
D17*
%TO.C,C6*%
X50862500Y-93000000D03*
X49137500Y-93000000D03*
%TD*%
M02*
