%TF.GenerationSoftware,KiCad,Pcbnew,(6.0.6)*%
%TF.CreationDate,2022-07-03T21:37:38+02:00*%
%TF.ProjectId,stencil,7374656e-6369-46c2-9e6b-696361645f70,rev?*%
%TF.SameCoordinates,Original*%
%TF.FileFunction,Copper,L1,Top*%
%TF.FilePolarity,Positive*%
%FSLAX46Y46*%
G04 Gerber Fmt 4.6, Leading zero omitted, Abs format (unit mm)*
G04 Created by KiCad (PCBNEW (6.0.6)) date 2022-07-03 21:37:38*
%MOMM*%
%LPD*%
G01*
G04 APERTURE LIST*
G04 Aperture macros list*
%AMRoundRect*
0 Rectangle with rounded corners*
0 $1 Rounding radius*
0 $2 $3 $4 $5 $6 $7 $8 $9 X,Y pos of 4 corners*
0 Add a 4 corners polygon primitive as box body*
4,1,4,$2,$3,$4,$5,$6,$7,$8,$9,$2,$3,0*
0 Add four circle primitives for the rounded corners*
1,1,$1+$1,$2,$3*
1,1,$1+$1,$4,$5*
1,1,$1+$1,$6,$7*
1,1,$1+$1,$8,$9*
0 Add four rect primitives between the rounded corners*
20,1,$1+$1,$2,$3,$4,$5,0*
20,1,$1+$1,$4,$5,$6,$7,0*
20,1,$1+$1,$6,$7,$8,$9,0*
20,1,$1+$1,$8,$9,$2,$3,0*%
G04 Aperture macros list end*
%TA.AperFunction,SMDPad,CuDef*%
%ADD10RoundRect,0.155000X-0.212500X-0.155000X0.212500X-0.155000X0.212500X0.155000X-0.212500X0.155000X0*%
%TD*%
%TA.AperFunction,SMDPad,CuDef*%
%ADD11RoundRect,0.155000X0.155000X-0.212500X0.155000X0.212500X-0.155000X0.212500X-0.155000X-0.212500X0*%
%TD*%
%TA.AperFunction,SMDPad,CuDef*%
%ADD12RoundRect,0.237500X-0.300000X-0.237500X0.300000X-0.237500X0.300000X0.237500X-0.300000X0.237500X0*%
%TD*%
%TA.AperFunction,SMDPad,CuDef*%
%ADD13RoundRect,0.160000X0.160000X-0.197500X0.160000X0.197500X-0.160000X0.197500X-0.160000X-0.197500X0*%
%TD*%
%TA.AperFunction,SMDPad,CuDef*%
%ADD14RoundRect,0.237500X0.237500X-0.250000X0.237500X0.250000X-0.237500X0.250000X-0.237500X-0.250000X0*%
%TD*%
%TA.AperFunction,SMDPad,CuDef*%
%ADD15RoundRect,0.237500X-0.250000X-0.237500X0.250000X-0.237500X0.250000X0.237500X-0.250000X0.237500X0*%
%TD*%
%TA.AperFunction,SMDPad,CuDef*%
%ADD16RoundRect,0.237500X-0.237500X0.250000X-0.237500X-0.250000X0.237500X-0.250000X0.237500X0.250000X0*%
%TD*%
%TA.AperFunction,SMDPad,CuDef*%
%ADD17RoundRect,0.237500X0.300000X0.237500X-0.300000X0.237500X-0.300000X-0.237500X0.300000X-0.237500X0*%
%TD*%
%TA.AperFunction,SMDPad,CuDef*%
%ADD18RoundRect,0.250001X0.624999X-0.462499X0.624999X0.462499X-0.624999X0.462499X-0.624999X-0.462499X0*%
%TD*%
%TA.AperFunction,SMDPad,CuDef*%
%ADD19RoundRect,0.160000X-0.160000X0.197500X-0.160000X-0.197500X0.160000X-0.197500X0.160000X0.197500X0*%
%TD*%
%TA.AperFunction,SMDPad,CuDef*%
%ADD20RoundRect,0.237500X-0.237500X0.287500X-0.237500X-0.287500X0.237500X-0.287500X0.237500X0.287500X0*%
%TD*%
%TA.AperFunction,SMDPad,CuDef*%
%ADD21RoundRect,0.225000X0.225000X-0.475000X0.225000X0.475000X-0.225000X0.475000X-0.225000X-0.475000X0*%
%TD*%
%TA.AperFunction,SMDPad,CuDef*%
%ADD22R,1.560000X0.650000*%
%TD*%
%TA.AperFunction,SMDPad,CuDef*%
%ADD23R,0.400000X1.350000*%
%TD*%
%TA.AperFunction,ComponentPad*%
%ADD24R,0.900000X1.700000*%
%TD*%
%TA.AperFunction,ComponentPad*%
%ADD25C,0.550000*%
%TD*%
%TA.AperFunction,SMDPad,CuDef*%
%ADD26RoundRect,0.237500X0.250000X0.237500X-0.250000X0.237500X-0.250000X-0.237500X0.250000X-0.237500X0*%
%TD*%
%TA.AperFunction,SMDPad,CuDef*%
%ADD27RoundRect,0.150000X-0.150000X0.650000X-0.150000X-0.650000X0.150000X-0.650000X0.150000X0.650000X0*%
%TD*%
%TA.AperFunction,SMDPad,CuDef*%
%ADD28RoundRect,0.087500X0.325000X0.087500X-0.325000X0.087500X-0.325000X-0.087500X0.325000X-0.087500X0*%
%TD*%
%TA.AperFunction,SMDPad,CuDef*%
%ADD29RoundRect,0.087500X0.087500X0.325000X-0.087500X0.325000X-0.087500X-0.325000X0.087500X-0.325000X0*%
%TD*%
%TA.AperFunction,SMDPad,CuDef*%
%ADD30R,2.700000X2.700000*%
%TD*%
%TA.AperFunction,SMDPad,CuDef*%
%ADD31RoundRect,0.237500X0.237500X-0.300000X0.237500X0.300000X-0.237500X0.300000X-0.237500X-0.300000X0*%
%TD*%
%TA.AperFunction,SMDPad,CuDef*%
%ADD32R,0.909599X0.254800*%
%TD*%
%TA.AperFunction,SMDPad,CuDef*%
%ADD33R,0.254800X0.909599*%
%TD*%
%TA.AperFunction,SMDPad,CuDef*%
%ADD34R,3.098800X3.098800*%
%TD*%
%TA.AperFunction,SMDPad,CuDef*%
%ADD35RoundRect,0.050000X-0.387500X-0.050000X0.387500X-0.050000X0.387500X0.050000X-0.387500X0.050000X0*%
%TD*%
%TA.AperFunction,SMDPad,CuDef*%
%ADD36RoundRect,0.050000X-0.050000X-0.387500X0.050000X-0.387500X0.050000X0.387500X-0.050000X0.387500X0*%
%TD*%
%TA.AperFunction,SMDPad,CuDef*%
%ADD37R,3.200000X3.200000*%
%TD*%
%TA.AperFunction,SMDPad,CuDef*%
%ADD38RoundRect,0.155000X-0.155000X0.212500X-0.155000X-0.212500X0.155000X-0.212500X0.155000X0.212500X0*%
%TD*%
%TA.AperFunction,SMDPad,CuDef*%
%ADD39R,1.400000X1.200000*%
%TD*%
%TA.AperFunction,SMDPad,CuDef*%
%ADD40RoundRect,0.155000X0.212500X0.155000X-0.212500X0.155000X-0.212500X-0.155000X0.212500X-0.155000X0*%
%TD*%
%TA.AperFunction,SMDPad,CuDef*%
%ADD41R,1.500000X2.000000*%
%TD*%
%TA.AperFunction,SMDPad,CuDef*%
%ADD42R,3.800000X2.000000*%
%TD*%
%TA.AperFunction,SMDPad,CuDef*%
%ADD43RoundRect,0.237500X-0.237500X0.300000X-0.237500X-0.300000X0.237500X-0.300000X0.237500X0.300000X0*%
%TD*%
%TA.AperFunction,SMDPad,CuDef*%
%ADD44RoundRect,0.250000X0.550000X-1.500000X0.550000X1.500000X-0.550000X1.500000X-0.550000X-1.500000X0*%
%TD*%
G04 APERTURE END LIST*
D10*
%TO.P,C15,1*%
%TO.N,N/C*%
X243307500Y-82460000D03*
%TO.P,C15,2*%
X244442500Y-82460000D03*
%TD*%
D11*
%TO.P,C11,1*%
%TO.N,N/C*%
X234875000Y-85317500D03*
%TO.P,C11,2*%
X234875000Y-84182500D03*
%TD*%
D12*
%TO.P,C3,1*%
%TO.N,N/C*%
X57137500Y-84000000D03*
%TO.P,C3,2*%
X58862500Y-84000000D03*
%TD*%
D11*
%TO.P,C8,1*%
%TO.N,N/C*%
X236375000Y-85317500D03*
%TO.P,C8,2*%
X236375000Y-84182500D03*
%TD*%
D13*
%TO.P,R5,1*%
%TO.N,N/C*%
X241375000Y-97597500D03*
%TO.P,R5,2*%
X241375000Y-96402500D03*
%TD*%
D10*
%TO.P,C16,1*%
%TO.N,N/C*%
X237907500Y-82250000D03*
%TO.P,C16,2*%
X239042500Y-82250000D03*
%TD*%
D14*
%TO.P,R7,1*%
%TO.N,N/C*%
X146250000Y-99912500D03*
%TO.P,R7,2*%
X146250000Y-98087500D03*
%TD*%
D10*
%TO.P,C13,1*%
%TO.N,N/C*%
X243307500Y-91900000D03*
%TO.P,C13,2*%
X244442500Y-91900000D03*
%TD*%
D15*
%TO.P,R1,1*%
%TO.N,N/C*%
X49087500Y-78000000D03*
%TO.P,R1,2*%
X50912500Y-78000000D03*
%TD*%
D14*
%TO.P,R9,1*%
%TO.N,N/C*%
X133500000Y-104412500D03*
%TO.P,R9,2*%
X133500000Y-102587500D03*
%TD*%
%TO.P,R7,1*%
%TO.N,N/C*%
X56000000Y-96912500D03*
%TO.P,R7,2*%
X56000000Y-95087500D03*
%TD*%
D16*
%TO.P,R6,1*%
%TO.N,N/C*%
X56000000Y-80087500D03*
%TO.P,R6,2*%
X56000000Y-81912500D03*
%TD*%
D17*
%TO.P,C5,1*%
%TO.N,N/C*%
X54862500Y-93000000D03*
%TO.P,C5,2*%
X53137500Y-93000000D03*
%TD*%
%TO.P,C4,1*%
%TO.N,N/C*%
X58862500Y-93000000D03*
%TO.P,C4,2*%
X57137500Y-93000000D03*
%TD*%
D18*
%TO.P,STEP1,1,K*%
%TO.N,N/C*%
X141500000Y-104737500D03*
%TO.P,STEP1,2,A*%
X141500000Y-101762500D03*
%TD*%
D19*
%TO.P,FB1,1*%
%TO.N,N/C*%
X239375000Y-69902500D03*
%TO.P,FB1,2*%
X239375000Y-71097500D03*
%TD*%
D20*
%TO.P,D1,1,K*%
%TO.N,N/C*%
X238125000Y-104125000D03*
%TO.P,D1,2,A*%
X238125000Y-105875000D03*
%TD*%
D21*
%TO.P,SW2,1,1*%
%TO.N,N/C*%
X240025000Y-110000000D03*
X240025000Y-104000000D03*
%TO.P,SW2,2,2*%
X243725000Y-110000000D03*
X243725000Y-104000000D03*
%TD*%
D22*
%TO.P,U2,1*%
%TO.N,N/C*%
X232025000Y-70550000D03*
%TO.P,U2,2,VSS*%
X232025000Y-71500000D03*
%TO.P,U2,3*%
X232025000Y-72450000D03*
%TO.P,U2,4*%
X234725000Y-72450000D03*
%TO.P,U2,5*%
X234725000Y-71500000D03*
%TO.P,U2,6*%
X234725000Y-70550000D03*
%TD*%
D11*
%TO.P,C10,1*%
%TO.N,N/C*%
X237875000Y-85317500D03*
%TO.P,C10,2*%
X237875000Y-84182500D03*
%TD*%
D16*
%TO.P,R8,1*%
%TO.N,N/C*%
X141250000Y-98087500D03*
%TO.P,R8,2*%
X141250000Y-99912500D03*
%TD*%
D13*
%TO.P,R1,1*%
%TO.N,N/C*%
X240375000Y-101097500D03*
%TO.P,R1,2*%
X240375000Y-99902500D03*
%TD*%
D23*
%TO.P,J3,1,VBUS*%
%TO.N,N/C*%
X239175000Y-68225000D03*
%TO.P,J3,2,D-*%
X238525000Y-68225000D03*
%TO.P,J3,3,D+*%
X237875000Y-68225000D03*
%TO.P,J3,4,ID*%
X237225000Y-68225000D03*
%TO.P,J3,5,GND*%
X236575000Y-68225000D03*
D24*
%TO.P,J3,6,Shield*%
X235050000Y-65550000D03*
D25*
X235875000Y-67700000D03*
X239875000Y-67700000D03*
D24*
X240700000Y-65550000D03*
%TD*%
D26*
%TO.P,R5,1*%
%TO.N,N/C*%
X151912500Y-90500000D03*
%TO.P,R5,2*%
X150087500Y-90500000D03*
%TD*%
D27*
%TO.P,U4,1,CS#*%
%TO.N,N/C*%
X235780000Y-74900000D03*
%TO.P,U4,2,DO/DQ1*%
X234510000Y-74900000D03*
%TO.P,U4,3,WP#/DQ2*%
X233240000Y-74900000D03*
%TO.P,U4,4,VSS*%
X231970000Y-74900000D03*
%TO.P,U4,5,DI/DQ0*%
X231970000Y-82100000D03*
%TO.P,U4,6,CLK*%
X233240000Y-82100000D03*
%TO.P,U4,7,HOLD#/DQ3*%
X234510000Y-82100000D03*
%TO.P,U4,8,VCC*%
X235780000Y-82100000D03*
%TD*%
D14*
%TO.P,R2,1*%
%TO.N,N/C*%
X143750000Y-87912500D03*
%TO.P,R2,2*%
X143750000Y-86087500D03*
%TD*%
D13*
%TO.P,R3,1*%
%TO.N,N/C*%
X242875000Y-97597500D03*
%TO.P,R3,2*%
X242875000Y-96402500D03*
%TD*%
D28*
%TO.P,U1,1,CLK*%
%TO.N,N/C*%
X55962500Y-88975000D03*
%TO.P,U1,2,DGND*%
X55962500Y-88325000D03*
%TO.P,U1,3,AVSS*%
X55962500Y-87675000D03*
%TO.P,U1,4,AIN3/REFN1*%
X55962500Y-87025000D03*
D29*
%TO.P,U1,5,AIN2*%
X54975000Y-86037500D03*
%TO.P,U1,6,REFN0*%
X54325000Y-86037500D03*
%TO.P,U1,7,REFP0*%
X53675000Y-86037500D03*
%TO.P,U1,8,AIN1*%
X53025000Y-86037500D03*
D28*
%TO.P,U1,9,AIN0/REFP1*%
X52037500Y-87025000D03*
%TO.P,U1,10,AVDD*%
X52037500Y-87675000D03*
%TO.P,U1,11,DVDD*%
X52037500Y-88325000D03*
%TO.P,U1,12,~{DRDY}*%
X52037500Y-88975000D03*
D29*
%TO.P,U1,13,DOUT/~{DRDY}*%
X53025000Y-89962500D03*
%TO.P,U1,14,DIN*%
X53675000Y-89962500D03*
%TO.P,U1,15,SCLK*%
X54325000Y-89962500D03*
%TO.P,U1,16,~{CS}*%
X54975000Y-89962500D03*
D30*
%TO.P,U1,17,PAD*%
X54000000Y-88000000D03*
%TD*%
D26*
%TO.P,R3,1*%
%TO.N,N/C*%
X58912500Y-99000000D03*
%TO.P,R3,2*%
X57087500Y-99000000D03*
%TD*%
D31*
%TO.P,C6,1*%
%TO.N,N/C*%
X148750000Y-87862500D03*
%TO.P,C6,2*%
X148750000Y-86137500D03*
%TD*%
D32*
%TO.P,U1,1,OB2*%
%TO.N,N/C*%
X142652900Y-91500000D03*
%TO.P,U1,2,ENN*%
X142652900Y-91999999D03*
%TO.P,U1,3,GND*%
X142652900Y-92500001D03*
%TO.P,U1,4,CPO*%
X142652900Y-93000000D03*
%TO.P,U1,5,CPI*%
X142652900Y-93499999D03*
%TO.P,U1,6,VCP*%
X142652900Y-94000001D03*
%TO.P,U1,7,NC*%
X142652900Y-94500000D03*
D33*
%TO.P,U1,8,5VOUT*%
X143500000Y-95347100D03*
%TO.P,U1,9,MS1*%
X143999999Y-95347100D03*
%TO.P,U1,10,MS2*%
X144500001Y-95347100D03*
%TO.P,U1,11,DIAG*%
X145000000Y-95347100D03*
%TO.P,U1,12,INDEX*%
X145499999Y-95347100D03*
%TO.P,U1,13,CLK*%
X146000001Y-95347100D03*
%TO.P,U1,14,PDN_UART*%
X146500000Y-95347100D03*
D32*
%TO.P,U1,15,VCC_IO*%
X147347100Y-94500000D03*
%TO.P,U1,16,STEP*%
X147347100Y-94000001D03*
%TO.P,U1,17,VREF*%
X147347100Y-93499999D03*
%TO.P,U1,18,GND*%
X147347100Y-93000000D03*
%TO.P,U1,19,DIR*%
X147347100Y-92500001D03*
%TO.P,U1,20,NC*%
X147347100Y-91999999D03*
%TO.P,U1,21,OA2*%
X147347100Y-91500000D03*
D33*
%TO.P,U1,22,VS*%
X146500000Y-90652900D03*
%TO.P,U1,23,BRA*%
X146000001Y-90652900D03*
%TO.P,U1,24,OA1*%
X145499999Y-90652900D03*
%TO.P,U1,25,NC*%
X145000000Y-90652900D03*
%TO.P,U1,26,OB1*%
X144500001Y-90652900D03*
%TO.P,U1,27,BRB*%
X143999999Y-90652900D03*
%TO.P,U1,28,VS*%
X143500000Y-90652900D03*
D34*
%TO.P,U1,29,GND*%
X145000000Y-93000000D03*
%TD*%
D15*
%TO.P,R4,1*%
%TO.N,N/C*%
X150087500Y-95500000D03*
%TO.P,R4,2*%
X151912500Y-95500000D03*
%TD*%
%TO.P,R2,1*%
%TO.N,N/C*%
X57087500Y-78000000D03*
%TO.P,R2,2*%
X58912500Y-78000000D03*
%TD*%
D10*
%TO.P,C4,1*%
%TO.N,N/C*%
X243307500Y-88500000D03*
%TO.P,C4,2*%
X244442500Y-88500000D03*
%TD*%
D26*
%TO.P,R4,1*%
%TO.N,N/C*%
X50912500Y-99000000D03*
%TO.P,R4,2*%
X49087500Y-99000000D03*
%TD*%
D35*
%TO.P,U1,1,IOVDD*%
%TO.N,N/C*%
X234437500Y-88400000D03*
%TO.P,U1,2,GPIO0*%
X234437500Y-88800000D03*
%TO.P,U1,3,GPIO1*%
X234437500Y-89200000D03*
%TO.P,U1,4,GPIO2*%
X234437500Y-89600000D03*
%TO.P,U1,5,GPIO3*%
X234437500Y-90000000D03*
%TO.P,U1,6,GPIO4*%
X234437500Y-90400000D03*
%TO.P,U1,7,GPIO5*%
X234437500Y-90800000D03*
%TO.P,U1,8,GPIO6*%
X234437500Y-91200000D03*
%TO.P,U1,9,GPIO7*%
X234437500Y-91600000D03*
%TO.P,U1,10,IOVDD*%
X234437500Y-92000000D03*
%TO.P,U1,11,GPIO8*%
X234437500Y-92400000D03*
%TO.P,U1,12,GPIO9*%
X234437500Y-92800000D03*
%TO.P,U1,13,GPIO10*%
X234437500Y-93200000D03*
%TO.P,U1,14,GPIO11*%
X234437500Y-93600000D03*
D36*
%TO.P,U1,15,GPIO12*%
X235275000Y-94437500D03*
%TO.P,U1,16,GPIO13*%
X235675000Y-94437500D03*
%TO.P,U1,17,GPIO14*%
X236075000Y-94437500D03*
%TO.P,U1,18,GPIO15*%
X236475000Y-94437500D03*
%TO.P,U1,19,TESTEN*%
X236875000Y-94437500D03*
%TO.P,U1,20,XIN*%
X237275000Y-94437500D03*
%TO.P,U1,21,XOUT*%
X237675000Y-94437500D03*
%TO.P,U1,22,IOVDD*%
X238075000Y-94437500D03*
%TO.P,U1,23,DVDD*%
X238475000Y-94437500D03*
%TO.P,U1,24,SWCLK*%
X238875000Y-94437500D03*
%TO.P,U1,25,SWD*%
X239275000Y-94437500D03*
%TO.P,U1,26,RUN*%
X239675000Y-94437500D03*
%TO.P,U1,27,GPIO16*%
X240075000Y-94437500D03*
%TO.P,U1,28,GPIO17*%
X240475000Y-94437500D03*
D35*
%TO.P,U1,29,GPIO18*%
X241312500Y-93600000D03*
%TO.P,U1,30,GPIO19*%
X241312500Y-93200000D03*
%TO.P,U1,31,GPIO20*%
X241312500Y-92800000D03*
%TO.P,U1,32,GPIO21*%
X241312500Y-92400000D03*
%TO.P,U1,33,IOVDD*%
X241312500Y-92000000D03*
%TO.P,U1,34,GPIO22*%
X241312500Y-91600000D03*
%TO.P,U1,35,GPIO23*%
X241312500Y-91200000D03*
%TO.P,U1,36,GPIO24*%
X241312500Y-90800000D03*
%TO.P,U1,37,GPIO25*%
X241312500Y-90400000D03*
%TO.P,U1,38,GPIO26_ADC0*%
X241312500Y-90000000D03*
%TO.P,U1,39,GPIO27_ADC1*%
X241312500Y-89600000D03*
%TO.P,U1,40,GPIO28_ADC2*%
X241312500Y-89200000D03*
%TO.P,U1,41,GPIO29_ADC3*%
X241312500Y-88800000D03*
%TO.P,U1,42,IOVDD*%
X241312500Y-88400000D03*
D36*
%TO.P,U1,43,ADC_AVDD*%
X240475000Y-87562500D03*
%TO.P,U1,44,VREG_IN*%
X240075000Y-87562500D03*
%TO.P,U1,45,VREG_VOUT*%
X239675000Y-87562500D03*
%TO.P,U1,46,USB_DM*%
X239275000Y-87562500D03*
%TO.P,U1,47,USB_DP*%
X238875000Y-87562500D03*
%TO.P,U1,48,USB_VDD*%
X238475000Y-87562500D03*
%TO.P,U1,49,IOVDD*%
X238075000Y-87562500D03*
%TO.P,U1,50,DVDD*%
X237675000Y-87562500D03*
%TO.P,U1,51,QSPI_SD3*%
X237275000Y-87562500D03*
%TO.P,U1,52,QSPI_SCLK*%
X236875000Y-87562500D03*
%TO.P,U1,53,QSPI_SD0*%
X236475000Y-87562500D03*
%TO.P,U1,54,QSPI_SD2*%
X236075000Y-87562500D03*
%TO.P,U1,55,QSPI_SD1*%
X235675000Y-87562500D03*
%TO.P,U1,56,QSPI_SS*%
X235275000Y-87562500D03*
D37*
%TO.P,U1,57,GND*%
X237875000Y-91000000D03*
%TD*%
D12*
%TO.P,C4,1*%
%TO.N,N/C*%
X150137500Y-93000000D03*
%TO.P,C4,2*%
X151862500Y-93000000D03*
%TD*%
D11*
%TO.P,C2,1*%
%TO.N,N/C*%
X242875000Y-85317500D03*
%TO.P,C2,2*%
X242875000Y-84182500D03*
%TD*%
D38*
%TO.P,C9,1*%
%TO.N,N/C*%
X239875000Y-96432500D03*
%TO.P,C9,2*%
X239875000Y-97567500D03*
%TD*%
D19*
%TO.P,R2,1*%
%TO.N,N/C*%
X240375000Y-84152500D03*
%TO.P,R2,2*%
X240375000Y-85347500D03*
%TD*%
D11*
%TO.P,C3,1*%
%TO.N,N/C*%
X233375000Y-85317500D03*
%TO.P,C3,2*%
X233375000Y-84182500D03*
%TD*%
D39*
%TO.P,Y1,1,1*%
%TO.N,N/C*%
X236475000Y-99650000D03*
%TO.P,Y1,2,2*%
X234275000Y-99650000D03*
%TO.P,Y1,3,3*%
X234275000Y-101350000D03*
%TO.P,Y1,4,4*%
X236475000Y-101350000D03*
%TD*%
D21*
%TO.P,SW1,1,1*%
%TO.N,N/C*%
X232525000Y-110000000D03*
X232525000Y-104000000D03*
%TO.P,SW1,2,2*%
X236225000Y-110000000D03*
X236225000Y-104000000D03*
%TD*%
D17*
%TO.P,C3,1*%
%TO.N,N/C*%
X139862500Y-95500000D03*
%TO.P,C3,2*%
X138137500Y-95500000D03*
%TD*%
D40*
%TO.P,C17,1*%
%TO.N,N/C*%
X232442500Y-92200000D03*
%TO.P,C17,2*%
X231307500Y-92200000D03*
%TD*%
D17*
%TO.P,C8,1*%
%TO.N,N/C*%
X49862500Y-89000000D03*
%TO.P,C8,2*%
X48137500Y-89000000D03*
%TD*%
D14*
%TO.P,R8,1*%
%TO.N,N/C*%
X52000000Y-96912500D03*
%TO.P,R8,2*%
X52000000Y-95087500D03*
%TD*%
D38*
%TO.P,C5,1*%
%TO.N,N/C*%
X231875000Y-99932500D03*
%TO.P,C5,2*%
X231875000Y-101067500D03*
%TD*%
D31*
%TO.P,C5,1*%
%TO.N,N/C*%
X141250000Y-87862500D03*
%TO.P,C5,2*%
X141250000Y-86137500D03*
%TD*%
D10*
%TO.P,C1,1*%
%TO.N,N/C*%
X243307500Y-87000000D03*
%TO.P,C1,2*%
X244442500Y-87000000D03*
%TD*%
D13*
%TO.P,R6,1*%
%TO.N,N/C*%
X241875000Y-101097500D03*
%TO.P,R6,2*%
X241875000Y-99902500D03*
%TD*%
D10*
%TO.P,C14,1*%
%TO.N,N/C*%
X240875000Y-71500000D03*
%TO.P,C14,2*%
X242010000Y-71500000D03*
%TD*%
D31*
%TO.P,C2,1*%
%TO.N,N/C*%
X140000000Y-93362500D03*
%TO.P,C2,2*%
X140000000Y-91637500D03*
%TD*%
D41*
%TO.P,U3,1,GND*%
%TO.N,N/C*%
X243675000Y-73850000D03*
D42*
%TO.P,U3,2,VO*%
X241375000Y-80150000D03*
D41*
X241375000Y-73850000D03*
%TO.P,U3,3,VI*%
X239075000Y-73850000D03*
%TD*%
D19*
%TO.P,R7,1*%
%TO.N,N/C*%
X236875000Y-71402500D03*
%TO.P,R7,2*%
X236875000Y-72597500D03*
%TD*%
D14*
%TO.P,R1,1*%
%TO.N,N/C*%
X137500000Y-93412500D03*
%TO.P,R1,2*%
X137500000Y-91587500D03*
%TD*%
D38*
%TO.P,C7,1*%
%TO.N,N/C*%
X238375000Y-96432500D03*
%TO.P,C7,2*%
X238375000Y-97567500D03*
%TD*%
D17*
%TO.P,C7,1*%
%TO.N,N/C*%
X49862500Y-87000000D03*
%TO.P,C7,2*%
X48137500Y-87000000D03*
%TD*%
D11*
%TO.P,C12,1*%
%TO.N,N/C*%
X241625000Y-85317500D03*
%TO.P,C12,2*%
X241625000Y-84182500D03*
%TD*%
D16*
%TO.P,R10,1*%
%TO.N,N/C*%
X131000000Y-102587500D03*
%TO.P,R10,2*%
X131000000Y-104412500D03*
%TD*%
D19*
%TO.P,R4,1*%
%TO.N,N/C*%
X239125000Y-84152500D03*
%TO.P,R4,2*%
X239125000Y-85347500D03*
%TD*%
D12*
%TO.P,C2,1*%
%TO.N,N/C*%
X53137500Y-84000000D03*
%TO.P,C2,2*%
X54862500Y-84000000D03*
%TD*%
%TO.P,C1,1*%
%TO.N,N/C*%
X49137500Y-84000000D03*
%TO.P,C1,2*%
X50862500Y-84000000D03*
%TD*%
D16*
%TO.P,R6,1*%
%TO.N,N/C*%
X148500000Y-98087500D03*
%TO.P,R6,2*%
X148500000Y-99912500D03*
%TD*%
D18*
%TO.P,EN1,1,K*%
%TO.N,N/C*%
X145500000Y-104737500D03*
%TO.P,EN1,2,A*%
X145500000Y-101762500D03*
%TD*%
D16*
%TO.P,R5,1*%
%TO.N,N/C*%
X52000000Y-80087500D03*
%TO.P,R5,2*%
X52000000Y-81912500D03*
%TD*%
D38*
%TO.P,C6,1*%
%TO.N,N/C*%
X238875000Y-99932500D03*
%TO.P,C6,2*%
X238875000Y-101067500D03*
%TD*%
D16*
%TO.P,R3,1*%
%TO.N,N/C*%
X146250000Y-86087500D03*
%TO.P,R3,2*%
X146250000Y-87912500D03*
%TD*%
D43*
%TO.P,C1,1*%
%TO.N,N/C*%
X143750000Y-98137500D03*
%TO.P,C1,2*%
X143750000Y-99862500D03*
%TD*%
D44*
%TO.P,C7,1*%
%TO.N,N/C*%
X145500000Y-80800000D03*
%TO.P,C7,2*%
X145500000Y-75200000D03*
%TD*%
D13*
%TO.P,R8,1*%
%TO.N,N/C*%
X236875000Y-97597500D03*
%TO.P,R8,2*%
X236875000Y-96402500D03*
%TD*%
D17*
%TO.P,C6,1*%
%TO.N,N/C*%
X50862500Y-93000000D03*
%TO.P,C6,2*%
X49137500Y-93000000D03*
%TD*%
M02*
