%TF.GenerationSoftware,KiCad,Pcbnew,(6.0.6)*%
%TF.CreationDate,2022-07-03T21:37:38+02:00*%
%TF.ProjectId,stencil,7374656e-6369-46c2-9e6b-696361645f70,rev?*%
%TF.SameCoordinates,Original*%
%TF.FileFunction,Paste,Bot*%
%TF.FilePolarity,Positive*%
%FSLAX46Y46*%
G04 Gerber Fmt 4.6, Leading zero omitted, Abs format (unit mm)*
G04 Created by KiCad (PCBNEW (6.0.6)) date 2022-07-03 21:37:38*
%MOMM*%
%LPD*%
G01*
G04 APERTURE LIST*
%ADD10C,0.500000*%
%ADD11C,1.050000*%
%ADD12C,1.000000*%
G04 APERTURE END LIST*
D10*
X96000000Y-59000000D02*
G75*
G03*
X95500000Y-58500000I-500000J0D01*
G01*
X231000000Y-130000000D02*
G75*
G03*
X231500000Y-129500000I7J499993D01*
G01*
X267500014Y-46500000D02*
G75*
G03*
X267000000Y-46000000I-500007J-7D01*
G01*
X103500000Y-82500000D02*
G75*
G03*
X103000000Y-83000000I7J-500007D01*
G01*
X103500000Y-94500000D02*
G75*
G03*
X103000000Y-95000000I7J-500007D01*
G01*
X164000000Y-46000000D02*
X174000000Y-46000000D01*
D11*
X93275000Y-126750000D02*
G75*
G03*
X93275000Y-126750000I-525000J0D01*
G01*
D10*
X96000000Y-95000000D02*
G75*
G03*
X95500000Y-94500000I-500000J0D01*
G01*
X12000000Y-71000000D02*
X12000000Y-81000000D01*
D11*
X277275000Y-49250000D02*
G75*
G03*
X277275000Y-49250000I-525000J0D01*
G01*
D10*
X268500014Y-129500000D02*
G75*
G03*
X269000000Y-130000000I499993J-7D01*
G01*
X280000000Y-83000000D02*
X280000000Y-93000000D01*
X95000000Y-130000000D02*
G75*
G03*
X96000000Y-129000000I0J1000000D01*
G01*
X36500000Y-129500000D02*
G75*
G03*
X37000000Y-130000000I500000J0D01*
G01*
X47000000Y-130000000D02*
G75*
G03*
X47500000Y-129500000I0J500000D01*
G01*
X35500000Y-46500000D02*
G75*
G03*
X35000000Y-46000000I-500000J0D01*
G01*
X187000014Y-119000000D02*
G75*
G03*
X186500000Y-118500000I-500007J-7D01*
G01*
D12*
X277250000Y-68625000D02*
G75*
G03*
X277250000Y-68625000I-500000J0D01*
G01*
D10*
X96000000Y-71000000D02*
X96000000Y-81000000D01*
X269000000Y-130000000D02*
X279000000Y-130000000D01*
D12*
X73875000Y-126750000D02*
G75*
G03*
X73875000Y-126750000I-500000J0D01*
G01*
D11*
X106775000Y-49250000D02*
G75*
G03*
X106775000Y-49250000I-525000J0D01*
G01*
D10*
X221000000Y-46000000D02*
G75*
G03*
X220500000Y-46500000I7J-500007D01*
G01*
X49000000Y-46000000D02*
X59000000Y-46000000D01*
X47500000Y-46500000D02*
G75*
G03*
X47000000Y-46000000I-500000J0D01*
G01*
X12000000Y-93000000D02*
G75*
G03*
X12500000Y-93500000I500000J0D01*
G01*
X104000000Y-46000000D02*
G75*
G03*
X103000000Y-47000000I7J-1000007D01*
G01*
X196000014Y-69000000D02*
G75*
G03*
X196500000Y-69500000I499993J-7D01*
G01*
X280000000Y-95000000D02*
X280000000Y-105000000D01*
X128000000Y-46000000D02*
G75*
G03*
X127500000Y-46500000I7J-500007D01*
G01*
X187000014Y-71000000D02*
G75*
G03*
X186500000Y-70500000I-500007J-7D01*
G01*
X232500014Y-129500000D02*
G75*
G03*
X233000000Y-130000000I499993J-7D01*
G01*
X103000000Y-95000000D02*
X103000000Y-105000000D01*
X35000000Y-130000000D02*
G75*
G03*
X35500000Y-129500000I0J500000D01*
G01*
D12*
X15750000Y-68625000D02*
G75*
G03*
X15750000Y-68625000I-500000J0D01*
G01*
X164875000Y-49250000D02*
G75*
G03*
X164875000Y-49250000I-500000J0D01*
G01*
D10*
X140000000Y-46000000D02*
X150000000Y-46000000D01*
X244500014Y-129500000D02*
G75*
G03*
X245000000Y-130000000I499993J-7D01*
G01*
X96000000Y-47000000D02*
G75*
G03*
X95000000Y-46000000I-1000000J0D01*
G01*
X83500000Y-46500000D02*
G75*
G03*
X83000000Y-46000000I-500000J0D01*
G01*
X219500014Y-46500000D02*
G75*
G03*
X219000000Y-46000000I-500007J-7D01*
G01*
D11*
X199775000Y-49250000D02*
G75*
G03*
X199775000Y-49250000I-525000J0D01*
G01*
D10*
X73000000Y-130000000D02*
X83000000Y-130000000D01*
X176000000Y-46000000D02*
G75*
G03*
X175500000Y-46500000I7J-500007D01*
G01*
X233000000Y-130000000D02*
X243000000Y-130000000D01*
X280000000Y-107000000D02*
X280000000Y-117000000D01*
X196500000Y-82500000D02*
G75*
G03*
X196000000Y-83000000I7J-500007D01*
G01*
D12*
X257875000Y-126750000D02*
G75*
G03*
X257875000Y-126750000I-500000J0D01*
G01*
D10*
X221000000Y-46000000D02*
X231000000Y-46000000D01*
X233000000Y-46000000D02*
G75*
G03*
X232500000Y-46500000I7J-500007D01*
G01*
X96000000Y-119000000D02*
X96000000Y-129000000D01*
X104000000Y-46000000D02*
X114000000Y-46000000D01*
X280000000Y-47000000D02*
X280000000Y-57000000D01*
X116000000Y-130000000D02*
X126000000Y-130000000D01*
D12*
X164875000Y-126750000D02*
G75*
G03*
X164875000Y-126750000I-500000J0D01*
G01*
D10*
X12000000Y-129000000D02*
G75*
G03*
X13000000Y-130000000I1000000J0D01*
G01*
X13000000Y-46000000D02*
G75*
G03*
X12000000Y-47000000I0J-1000000D01*
G01*
X187000000Y-95000000D02*
X187000000Y-105000000D01*
X231500014Y-46500000D02*
G75*
G03*
X231000000Y-46000000I-500007J-7D01*
G01*
X174000000Y-130000000D02*
G75*
G03*
X174500000Y-129500000I7J499993D01*
G01*
X196000014Y-129000000D02*
G75*
G03*
X197000000Y-130000000I999993J-7D01*
G01*
X84500000Y-129500000D02*
G75*
G03*
X85000000Y-130000000I500000J0D01*
G01*
D11*
X277275000Y-126750000D02*
G75*
G03*
X277275000Y-126750000I-525000J0D01*
G01*
D10*
X12000000Y-69000000D02*
G75*
G03*
X12500000Y-69500000I500000J0D01*
G01*
X257000000Y-130000000D02*
X267000000Y-130000000D01*
D12*
X219125000Y-126750000D02*
G75*
G03*
X219125000Y-126750000I-500000J0D01*
G01*
D10*
X37000000Y-46000000D02*
X47000000Y-46000000D01*
X116000000Y-46000000D02*
G75*
G03*
X115500000Y-46500000I7J-500007D01*
G01*
X127500014Y-129500000D02*
G75*
G03*
X128000000Y-130000000I499993J-7D01*
G01*
X187000000Y-71000000D02*
X187000000Y-81000000D01*
D12*
X15750000Y-88000000D02*
G75*
G03*
X15750000Y-88000000I-500000J0D01*
G01*
D10*
X103000014Y-117000000D02*
G75*
G03*
X103500000Y-117500000I499993J-7D01*
G01*
X12500000Y-58500000D02*
G75*
G03*
X12000000Y-59000000I0J-500000D01*
G01*
X85000000Y-130000000D02*
X95000000Y-130000000D01*
X95500000Y-57500000D02*
G75*
G03*
X96000000Y-57000000I0J500000D01*
G01*
D12*
X54500000Y-126750000D02*
G75*
G03*
X54500000Y-126750000I-500000J0D01*
G01*
D10*
X103000000Y-59000000D02*
X103000000Y-69000000D01*
X196500000Y-106500000D02*
G75*
G03*
X196000000Y-107000000I7J-500007D01*
G01*
X12000000Y-81000000D02*
G75*
G03*
X12500000Y-81500000I500000J0D01*
G01*
X12500000Y-82500000D02*
G75*
G03*
X12000000Y-83000000I0J-500000D01*
G01*
X37000000Y-46000000D02*
G75*
G03*
X36500000Y-46500000I0J-500000D01*
G01*
X280000000Y-119000000D02*
X280000000Y-129000000D01*
X209000000Y-46000000D02*
G75*
G03*
X208500000Y-46500000I7J-500007D01*
G01*
X196500000Y-58500000D02*
G75*
G03*
X196000000Y-59000000I7J-500007D01*
G01*
D12*
X35125000Y-49250000D02*
G75*
G03*
X35125000Y-49250000I-500000J0D01*
G01*
D10*
X197000000Y-130000000D02*
X207000000Y-130000000D01*
X279500000Y-117500000D02*
G75*
G03*
X280000000Y-117000000I7J499993D01*
G01*
X280000014Y-119000000D02*
G75*
G03*
X279500000Y-118500000I-500007J-7D01*
G01*
X13000000Y-130000000D02*
X23000000Y-130000000D01*
D12*
X277250000Y-88000000D02*
G75*
G03*
X277250000Y-88000000I-500000J0D01*
G01*
D10*
X103000000Y-71000000D02*
X103000000Y-81000000D01*
X103000000Y-47000000D02*
X103000000Y-57000000D01*
X23500000Y-46500000D02*
G75*
G03*
X23000000Y-46000000I-500000J0D01*
G01*
X151500014Y-129500000D02*
G75*
G03*
X152000000Y-130000000I499993J-7D01*
G01*
X37000000Y-130000000D02*
X47000000Y-130000000D01*
X12500000Y-70500000D02*
G75*
G03*
X12000000Y-71000000I0J-500000D01*
G01*
X163500014Y-129500000D02*
G75*
G03*
X164000000Y-130000000I499993J-7D01*
G01*
X280000014Y-47000000D02*
G75*
G03*
X279000000Y-46000000I-1000007J-7D01*
G01*
X279000000Y-130000000D02*
G75*
G03*
X280000000Y-129000000I7J999993D01*
G01*
X187000014Y-95000000D02*
G75*
G03*
X186500000Y-94500000I-500007J-7D01*
G01*
X187000000Y-119000000D02*
X187000000Y-129000000D01*
X186500000Y-105500000D02*
G75*
G03*
X187000000Y-105000000I7J499993D01*
G01*
X25000000Y-130000000D02*
X35000000Y-130000000D01*
X114000000Y-130000000D02*
G75*
G03*
X114500000Y-129500000I7J499993D01*
G01*
D12*
X199750000Y-68625000D02*
G75*
G03*
X199750000Y-68625000I-500000J0D01*
G01*
X93250000Y-88000000D02*
G75*
G03*
X93250000Y-88000000I-500000J0D01*
G01*
X257875000Y-49250000D02*
G75*
G03*
X257875000Y-49250000I-500000J0D01*
G01*
D10*
X186500000Y-69500000D02*
G75*
G03*
X187000000Y-69000000I7J499993D01*
G01*
X12000000Y-107000000D02*
X12000000Y-117000000D01*
X280000014Y-59000000D02*
G75*
G03*
X279500000Y-58500000I-500007J-7D01*
G01*
X152000000Y-130000000D02*
X162000000Y-130000000D01*
X73000000Y-46000000D02*
G75*
G03*
X72500000Y-46500000I0J-500000D01*
G01*
X103000014Y-69000000D02*
G75*
G03*
X103500000Y-69500000I499993J-7D01*
G01*
X96000000Y-59000000D02*
X96000000Y-69000000D01*
X95500000Y-69500000D02*
G75*
G03*
X96000000Y-69000000I0J500000D01*
G01*
X196000000Y-107000000D02*
X196000000Y-117000000D01*
X187000000Y-59000000D02*
X187000000Y-69000000D01*
X197000000Y-46000000D02*
X207000000Y-46000000D01*
D12*
X184250000Y-68625000D02*
G75*
G03*
X184250000Y-68625000I-500000J0D01*
G01*
D10*
X96000000Y-71000000D02*
G75*
G03*
X95500000Y-70500000I-500000J0D01*
G01*
X209000000Y-130000000D02*
X219000000Y-130000000D01*
X12000000Y-47000000D02*
X12000000Y-57000000D01*
D12*
X238500000Y-126750000D02*
G75*
G03*
X238500000Y-126750000I-500000J0D01*
G01*
D10*
X138500014Y-46500000D02*
G75*
G03*
X138000000Y-46000000I-500007J-7D01*
G01*
X269000000Y-46000000D02*
G75*
G03*
X268500000Y-46500000I7J-500007D01*
G01*
X245000000Y-130000000D02*
X255000000Y-130000000D01*
X115500014Y-129500000D02*
G75*
G03*
X116000000Y-130000000I499993J-7D01*
G01*
X138000000Y-130000000D02*
G75*
G03*
X138500000Y-129500000I7J499993D01*
G01*
X186500000Y-117500000D02*
G75*
G03*
X187000000Y-117000000I7J499993D01*
G01*
X176000000Y-130000000D02*
X186000000Y-130000000D01*
D12*
X106750000Y-88000000D02*
G75*
G03*
X106750000Y-88000000I-500000J0D01*
G01*
D10*
X12000000Y-105000000D02*
G75*
G03*
X12500000Y-105500000I500000J0D01*
G01*
X245000000Y-46000000D02*
X255000000Y-46000000D01*
D11*
X199775000Y-126750000D02*
G75*
G03*
X199775000Y-126750000I-525000J0D01*
G01*
D10*
X103000014Y-105000000D02*
G75*
G03*
X103500000Y-105500000I499993J-7D01*
G01*
X196000014Y-105000000D02*
G75*
G03*
X196500000Y-105500000I499993J-7D01*
G01*
X12500000Y-118500000D02*
G75*
G03*
X12000000Y-119000000I0J-500000D01*
G01*
X25000000Y-46000000D02*
G75*
G03*
X24500000Y-46500000I0J-500000D01*
G01*
X233000000Y-46000000D02*
X243000000Y-46000000D01*
D12*
X126125000Y-126750000D02*
G75*
G03*
X126125000Y-126750000I-500000J0D01*
G01*
X199750000Y-107375000D02*
G75*
G03*
X199750000Y-107375000I-500000J0D01*
G01*
X277250000Y-107375000D02*
G75*
G03*
X277250000Y-107375000I-500000J0D01*
G01*
X54500000Y-49250000D02*
G75*
G03*
X54500000Y-49250000I-500000J0D01*
G01*
D10*
X279500000Y-93500000D02*
G75*
G03*
X280000000Y-93000000I7J499993D01*
G01*
X196500000Y-70500000D02*
G75*
G03*
X196000000Y-71000000I7J-500007D01*
G01*
X12000000Y-117000000D02*
G75*
G03*
X12500000Y-117500000I500000J0D01*
G01*
X103000000Y-83000000D02*
X103000000Y-93000000D01*
X12000000Y-59000000D02*
X12000000Y-69000000D01*
X59500000Y-46500000D02*
G75*
G03*
X59000000Y-46000000I-500000J0D01*
G01*
X12500000Y-94500000D02*
G75*
G03*
X12000000Y-95000000I0J-500000D01*
G01*
X126500014Y-46500000D02*
G75*
G03*
X126000000Y-46000000I-500007J-7D01*
G01*
D12*
X238500000Y-49250000D02*
G75*
G03*
X238500000Y-49250000I-500000J0D01*
G01*
D11*
X93275000Y-49250000D02*
G75*
G03*
X93275000Y-49250000I-525000J0D01*
G01*
D10*
X25000000Y-46000000D02*
X35000000Y-46000000D01*
X280000014Y-107000000D02*
G75*
G03*
X279500000Y-106500000I-500007J-7D01*
G01*
X197000000Y-46000000D02*
G75*
G03*
X196000000Y-47000000I7J-1000007D01*
G01*
X95500000Y-93500000D02*
G75*
G03*
X96000000Y-93000000I0J500000D01*
G01*
X255500014Y-46500000D02*
G75*
G03*
X255000000Y-46000000I-500007J-7D01*
G01*
X96000000Y-83000000D02*
G75*
G03*
X95500000Y-82500000I-500000J0D01*
G01*
X220500014Y-129500000D02*
G75*
G03*
X221000000Y-130000000I499993J-7D01*
G01*
X128000000Y-130000000D02*
X138000000Y-130000000D01*
X279500000Y-105500000D02*
G75*
G03*
X280000000Y-105000000I7J499993D01*
G01*
X139500014Y-129500000D02*
G75*
G03*
X140000000Y-130000000I499993J-7D01*
G01*
X96000000Y-107000000D02*
G75*
G03*
X95500000Y-106500000I-500000J0D01*
G01*
X103500000Y-118500000D02*
G75*
G03*
X103000000Y-119000000I7J-500007D01*
G01*
D12*
X93250000Y-68625000D02*
G75*
G03*
X93250000Y-68625000I-500000J0D01*
G01*
D10*
X150000000Y-130000000D02*
G75*
G03*
X150500000Y-129500000I7J499993D01*
G01*
X95500000Y-117500000D02*
G75*
G03*
X96000000Y-117000000I0J500000D01*
G01*
X186500000Y-93500000D02*
G75*
G03*
X187000000Y-93000000I7J499993D01*
G01*
X196000000Y-119000000D02*
X196000000Y-129000000D01*
X164000000Y-130000000D02*
X174000000Y-130000000D01*
X187000014Y-107000000D02*
G75*
G03*
X186500000Y-106500000I-500007J-7D01*
G01*
X71000000Y-130000000D02*
G75*
G03*
X71500000Y-129500000I0J500000D01*
G01*
X196000000Y-59000000D02*
X196000000Y-69000000D01*
X243000000Y-130000000D02*
G75*
G03*
X243500000Y-129500000I7J499993D01*
G01*
X103000000Y-119000000D02*
X103000000Y-129000000D01*
X176000000Y-46000000D02*
X186000000Y-46000000D01*
X207000000Y-130000000D02*
G75*
G03*
X207500000Y-129500000I7J499993D01*
G01*
X104000000Y-130000000D02*
X114000000Y-130000000D01*
X61000000Y-46000000D02*
X71000000Y-46000000D01*
X73000000Y-46000000D02*
X83000000Y-46000000D01*
X280000000Y-71000000D02*
X280000000Y-81000000D01*
X175500014Y-129500000D02*
G75*
G03*
X176000000Y-130000000I499993J-7D01*
G01*
X103500000Y-58500000D02*
G75*
G03*
X103000000Y-59000000I7J-500007D01*
G01*
D12*
X15750000Y-107375000D02*
G75*
G03*
X15750000Y-107375000I-500000J0D01*
G01*
D10*
X162000000Y-130000000D02*
G75*
G03*
X162500000Y-129500000I7J499993D01*
G01*
X221000000Y-130000000D02*
X231000000Y-130000000D01*
X12000000Y-119000000D02*
X12000000Y-129000000D01*
D11*
X106775000Y-126750000D02*
G75*
G03*
X106775000Y-126750000I-525000J0D01*
G01*
D12*
X126125000Y-49250000D02*
G75*
G03*
X126125000Y-49250000I-500000J0D01*
G01*
D10*
X152000000Y-46000000D02*
X162000000Y-46000000D01*
X103000014Y-93000000D02*
G75*
G03*
X103500000Y-93500000I499993J-7D01*
G01*
X196000000Y-95000000D02*
X196000000Y-105000000D01*
X96000000Y-47000000D02*
X96000000Y-57000000D01*
X49000000Y-46000000D02*
G75*
G03*
X48500000Y-46500000I0J-500000D01*
G01*
X279500000Y-57500000D02*
G75*
G03*
X280000000Y-57000000I7J499993D01*
G01*
X280000014Y-83000000D02*
G75*
G03*
X279500000Y-82500000I-500007J-7D01*
G01*
X24500000Y-129500000D02*
G75*
G03*
X25000000Y-130000000I500000J0D01*
G01*
X152000000Y-46000000D02*
G75*
G03*
X151500000Y-46500000I7J-500007D01*
G01*
X72500000Y-129500000D02*
G75*
G03*
X73000000Y-130000000I500000J0D01*
G01*
X103000000Y-107000000D02*
X103000000Y-117000000D01*
X196500000Y-94500000D02*
G75*
G03*
X196000000Y-95000000I7J-500007D01*
G01*
X103500000Y-106500000D02*
G75*
G03*
X103000000Y-107000000I7J-500007D01*
G01*
X255000000Y-130000000D02*
G75*
G03*
X255500000Y-129500000I7J499993D01*
G01*
X48500000Y-129500000D02*
G75*
G03*
X49000000Y-130000000I500000J0D01*
G01*
D12*
X106750000Y-68625000D02*
G75*
G03*
X106750000Y-68625000I-500000J0D01*
G01*
D11*
X184275000Y-126750000D02*
G75*
G03*
X184275000Y-126750000I-525000J0D01*
G01*
D10*
X243500014Y-46500000D02*
G75*
G03*
X243000000Y-46000000I-500007J-7D01*
G01*
X209000000Y-46000000D02*
X219000000Y-46000000D01*
X150500014Y-46500000D02*
G75*
G03*
X150000000Y-46000000I-500007J-7D01*
G01*
X280000014Y-95000000D02*
G75*
G03*
X279500000Y-94500000I-500007J-7D01*
G01*
X96000000Y-83000000D02*
X96000000Y-93000000D01*
X85000000Y-46000000D02*
X95000000Y-46000000D01*
X126000000Y-130000000D02*
G75*
G03*
X126500000Y-129500000I7J499993D01*
G01*
X59000000Y-130000000D02*
G75*
G03*
X59500000Y-129500000I0J500000D01*
G01*
X49000000Y-130000000D02*
X59000000Y-130000000D01*
X267000000Y-130000000D02*
G75*
G03*
X267500000Y-129500000I7J499993D01*
G01*
X187000000Y-83000000D02*
X187000000Y-93000000D01*
D12*
X184250000Y-88000000D02*
G75*
G03*
X184250000Y-88000000I-500000J0D01*
G01*
X184250000Y-107375000D02*
G75*
G03*
X184250000Y-107375000I-500000J0D01*
G01*
D10*
X280000014Y-71000000D02*
G75*
G03*
X279500000Y-70500000I-500007J-7D01*
G01*
X196000000Y-47000000D02*
X196000000Y-57000000D01*
D12*
X145500000Y-49250000D02*
G75*
G03*
X145500000Y-49250000I-500000J0D01*
G01*
D10*
X61000000Y-46000000D02*
G75*
G03*
X60500000Y-46500000I0J-500000D01*
G01*
X95500000Y-81500000D02*
G75*
G03*
X96000000Y-81000000I0J500000D01*
G01*
X269000000Y-46000000D02*
X279000000Y-46000000D01*
D12*
X219125000Y-49250000D02*
G75*
G03*
X219125000Y-49250000I-500000J0D01*
G01*
D10*
X116000000Y-46000000D02*
X126000000Y-46000000D01*
X96000000Y-119000000D02*
G75*
G03*
X95500000Y-118500000I-500000J0D01*
G01*
X187000014Y-83000000D02*
G75*
G03*
X186500000Y-82500000I-500007J-7D01*
G01*
X162500014Y-46500000D02*
G75*
G03*
X162000000Y-46000000I-500007J-7D01*
G01*
X245000000Y-46000000D02*
G75*
G03*
X244500000Y-46500000I7J-500007D01*
G01*
X196000014Y-81000000D02*
G75*
G03*
X196500000Y-81500000I499993J-7D01*
G01*
X71500000Y-46500000D02*
G75*
G03*
X71000000Y-46000000I-500000J0D01*
G01*
X13000000Y-46000000D02*
X23000000Y-46000000D01*
X174500014Y-46500000D02*
G75*
G03*
X174000000Y-46000000I-500007J-7D01*
G01*
X12500000Y-106500000D02*
G75*
G03*
X12000000Y-107000000I0J-500000D01*
G01*
X61000000Y-130000000D02*
X71000000Y-130000000D01*
X187000014Y-47000000D02*
G75*
G03*
X186000000Y-46000000I-1000007J-7D01*
G01*
D11*
X15775000Y-126750000D02*
G75*
G03*
X15775000Y-126750000I-525000J0D01*
G01*
D10*
X207500014Y-46500000D02*
G75*
G03*
X207000000Y-46000000I-500007J-7D01*
G01*
X257000000Y-46000000D02*
G75*
G03*
X256500000Y-46500000I7J-500007D01*
G01*
X196000000Y-83000000D02*
X196000000Y-93000000D01*
X196000014Y-93000000D02*
G75*
G03*
X196500000Y-93500000I499993J-7D01*
G01*
X60500000Y-129500000D02*
G75*
G03*
X61000000Y-130000000I500000J0D01*
G01*
X187000000Y-107000000D02*
X187000000Y-117000000D01*
D12*
X106750000Y-107375000D02*
G75*
G03*
X106750000Y-107375000I-500000J0D01*
G01*
D10*
X219000000Y-130000000D02*
G75*
G03*
X219500000Y-129500000I7J499993D01*
G01*
D12*
X73875000Y-49250000D02*
G75*
G03*
X73875000Y-49250000I-500000J0D01*
G01*
D10*
X256500014Y-129500000D02*
G75*
G03*
X257000000Y-130000000I499993J-7D01*
G01*
X103500000Y-70500000D02*
G75*
G03*
X103000000Y-71000000I7J-500007D01*
G01*
X187000014Y-59000000D02*
G75*
G03*
X186500000Y-58500000I-500007J-7D01*
G01*
X196500000Y-118500000D02*
G75*
G03*
X196000000Y-119000000I7J-500007D01*
G01*
D12*
X93250000Y-107375000D02*
G75*
G03*
X93250000Y-107375000I-500000J0D01*
G01*
D11*
X184275000Y-49250000D02*
G75*
G03*
X184275000Y-49250000I-525000J0D01*
G01*
D10*
X140000000Y-130000000D02*
X150000000Y-130000000D01*
X187000000Y-47000000D02*
X187000000Y-57000000D01*
X128000000Y-46000000D02*
X138000000Y-46000000D01*
X280000000Y-59000000D02*
X280000000Y-69000000D01*
X96000000Y-107000000D02*
X96000000Y-117000000D01*
X186000000Y-130000000D02*
G75*
G03*
X187000000Y-129000000I7J999993D01*
G01*
X196000000Y-71000000D02*
X196000000Y-81000000D01*
D11*
X15775000Y-49250000D02*
G75*
G03*
X15775000Y-49250000I-525000J0D01*
G01*
D12*
X199750000Y-88000000D02*
G75*
G03*
X199750000Y-88000000I-500000J0D01*
G01*
D10*
X12000000Y-83000000D02*
X12000000Y-93000000D01*
X279500000Y-69500000D02*
G75*
G03*
X280000000Y-69000000I7J499993D01*
G01*
D12*
X145500000Y-126750000D02*
G75*
G03*
X145500000Y-126750000I-500000J0D01*
G01*
D10*
X103000014Y-81000000D02*
G75*
G03*
X103500000Y-81500000I499993J-7D01*
G01*
X103000014Y-57000000D02*
G75*
G03*
X103500000Y-57500000I499993J-7D01*
G01*
X114500014Y-46500000D02*
G75*
G03*
X114000000Y-46000000I-500007J-7D01*
G01*
X12000000Y-95000000D02*
X12000000Y-105000000D01*
X279500000Y-81500000D02*
G75*
G03*
X280000000Y-81000000I7J499993D01*
G01*
X208500014Y-129500000D02*
G75*
G03*
X209000000Y-130000000I499993J-7D01*
G01*
D12*
X35125000Y-126750000D02*
G75*
G03*
X35125000Y-126750000I-500000J0D01*
G01*
D10*
X103000014Y-129000000D02*
G75*
G03*
X104000000Y-130000000I999993J-7D01*
G01*
X186500000Y-81500000D02*
G75*
G03*
X187000000Y-81000000I7J499993D01*
G01*
X164000000Y-46000000D02*
G75*
G03*
X163500000Y-46500000I7J-500007D01*
G01*
X85000000Y-46000000D02*
G75*
G03*
X84500000Y-46500000I0J-500000D01*
G01*
X186500000Y-57500000D02*
G75*
G03*
X187000000Y-57000000I7J499993D01*
G01*
X257000000Y-46000000D02*
X267000000Y-46000000D01*
X23000000Y-130000000D02*
G75*
G03*
X23500000Y-129500000I0J500000D01*
G01*
X12000000Y-57000000D02*
G75*
G03*
X12500000Y-57500000I500000J0D01*
G01*
X140000000Y-46000000D02*
G75*
G03*
X139500000Y-46500000I7J-500007D01*
G01*
X95500000Y-105500000D02*
G75*
G03*
X96000000Y-105000000I0J500000D01*
G01*
X196000014Y-117000000D02*
G75*
G03*
X196500000Y-117500000I499993J-7D01*
G01*
X83000000Y-130000000D02*
G75*
G03*
X83500000Y-129500000I0J500000D01*
G01*
X196000014Y-57000000D02*
G75*
G03*
X196500000Y-57500000I499993J-7D01*
G01*
X96000000Y-95000000D02*
X96000000Y-105000000D01*
M02*
