%TF.GenerationSoftware,KiCad,Pcbnew,(6.0.6)*%
%TF.CreationDate,2022-07-03T21:37:38+02:00*%
%TF.ProjectId,stencil,7374656e-6369-46c2-9e6b-696361645f70,rev?*%
%TF.SameCoordinates,Original*%
%TF.FileFunction,Legend,Top*%
%TF.FilePolarity,Positive*%
%FSLAX46Y46*%
G04 Gerber Fmt 4.6, Leading zero omitted, Abs format (unit mm)*
G04 Created by KiCad (PCBNEW (6.0.6)) date 2022-07-03 21:37:38*
%MOMM*%
%LPD*%
G01*
G04 APERTURE LIST*
G04 Aperture macros list*
%AMRoundRect*
0 Rectangle with rounded corners*
0 $1 Rounding radius*
0 $2 $3 $4 $5 $6 $7 $8 $9 X,Y pos of 4 corners*
0 Add a 4 corners polygon primitive as box body*
4,1,4,$2,$3,$4,$5,$6,$7,$8,$9,$2,$3,0*
0 Add four circle primitives for the rounded corners*
1,1,$1+$1,$2,$3*
1,1,$1+$1,$4,$5*
1,1,$1+$1,$6,$7*
1,1,$1+$1,$8,$9*
0 Add four rect primitives between the rounded corners*
20,1,$1+$1,$2,$3,$4,$5,0*
20,1,$1+$1,$4,$5,$6,$7,0*
20,1,$1+$1,$6,$7,$8,$9,0*
20,1,$1+$1,$8,$9,$2,$3,0*%
G04 Aperture macros list end*
%ADD10C,0.150000*%
%ADD11C,0.120000*%
%ADD12C,0.100000*%
%ADD13RoundRect,0.155000X-0.212500X-0.155000X0.212500X-0.155000X0.212500X0.155000X-0.212500X0.155000X0*%
%ADD14RoundRect,0.155000X0.155000X-0.212500X0.155000X0.212500X-0.155000X0.212500X-0.155000X-0.212500X0*%
%ADD15RoundRect,0.237500X-0.300000X-0.237500X0.300000X-0.237500X0.300000X0.237500X-0.300000X0.237500X0*%
%ADD16RoundRect,0.160000X0.160000X-0.197500X0.160000X0.197500X-0.160000X0.197500X-0.160000X-0.197500X0*%
%ADD17RoundRect,0.237500X0.237500X-0.250000X0.237500X0.250000X-0.237500X0.250000X-0.237500X-0.250000X0*%
%ADD18RoundRect,0.237500X-0.250000X-0.237500X0.250000X-0.237500X0.250000X0.237500X-0.250000X0.237500X0*%
%ADD19RoundRect,0.237500X-0.237500X0.250000X-0.237500X-0.250000X0.237500X-0.250000X0.237500X0.250000X0*%
%ADD20RoundRect,0.237500X0.300000X0.237500X-0.300000X0.237500X-0.300000X-0.237500X0.300000X-0.237500X0*%
%ADD21RoundRect,0.250001X0.624999X-0.462499X0.624999X0.462499X-0.624999X0.462499X-0.624999X-0.462499X0*%
%ADD22RoundRect,0.160000X-0.160000X0.197500X-0.160000X-0.197500X0.160000X-0.197500X0.160000X0.197500X0*%
%ADD23RoundRect,0.237500X-0.237500X0.287500X-0.237500X-0.287500X0.237500X-0.287500X0.237500X0.287500X0*%
%ADD24RoundRect,0.225000X0.225000X-0.475000X0.225000X0.475000X-0.225000X0.475000X-0.225000X-0.475000X0*%
%ADD25R,1.560000X0.650000*%
%ADD26R,0.400000X1.350000*%
%ADD27R,0.900000X1.700000*%
%ADD28C,0.550000*%
%ADD29RoundRect,0.237500X0.250000X0.237500X-0.250000X0.237500X-0.250000X-0.237500X0.250000X-0.237500X0*%
%ADD30RoundRect,0.150000X-0.150000X0.650000X-0.150000X-0.650000X0.150000X-0.650000X0.150000X0.650000X0*%
%ADD31RoundRect,0.087500X0.325000X0.087500X-0.325000X0.087500X-0.325000X-0.087500X0.325000X-0.087500X0*%
%ADD32RoundRect,0.087500X0.087500X0.325000X-0.087500X0.325000X-0.087500X-0.325000X0.087500X-0.325000X0*%
%ADD33R,2.700000X2.700000*%
%ADD34RoundRect,0.237500X0.237500X-0.300000X0.237500X0.300000X-0.237500X0.300000X-0.237500X-0.300000X0*%
%ADD35R,0.909599X0.254800*%
%ADD36R,0.254800X0.909599*%
%ADD37R,3.098800X3.098800*%
%ADD38RoundRect,0.050000X-0.387500X-0.050000X0.387500X-0.050000X0.387500X0.050000X-0.387500X0.050000X0*%
%ADD39RoundRect,0.050000X-0.050000X-0.387500X0.050000X-0.387500X0.050000X0.387500X-0.050000X0.387500X0*%
%ADD40R,3.200000X3.200000*%
%ADD41RoundRect,0.155000X-0.155000X0.212500X-0.155000X-0.212500X0.155000X-0.212500X0.155000X0.212500X0*%
%ADD42R,1.400000X1.200000*%
%ADD43RoundRect,0.155000X0.212500X0.155000X-0.212500X0.155000X-0.212500X-0.155000X0.212500X-0.155000X0*%
%ADD44R,1.500000X2.000000*%
%ADD45R,3.800000X2.000000*%
%ADD46RoundRect,0.237500X-0.237500X0.300000X-0.237500X-0.300000X0.237500X-0.300000X0.237500X0.300000X0*%
%ADD47RoundRect,0.250000X0.550000X-1.500000X0.550000X1.500000X-0.550000X1.500000X-0.550000X-1.500000X0*%
G04 APERTURE END LIST*
D10*
%TO.C,STEP1*%
X139904761Y-105345238D02*
X139952380Y-105202380D01*
X139952380Y-104964285D01*
X139904761Y-104869047D01*
X139857142Y-104821428D01*
X139761904Y-104773809D01*
X139666666Y-104773809D01*
X139571428Y-104821428D01*
X139523809Y-104869047D01*
X139476190Y-104964285D01*
X139428571Y-105154761D01*
X139380952Y-105250000D01*
X139333333Y-105297619D01*
X139238095Y-105345238D01*
X139142857Y-105345238D01*
X139047619Y-105297619D01*
X139000000Y-105250000D01*
X138952380Y-105154761D01*
X138952380Y-104916666D01*
X139000000Y-104773809D01*
X138952380Y-104488095D02*
X138952380Y-103916666D01*
X139952380Y-104202380D02*
X138952380Y-104202380D01*
X139428571Y-103583333D02*
X139428571Y-103250000D01*
X139952380Y-103107142D02*
X139952380Y-103583333D01*
X138952380Y-103583333D01*
X138952380Y-103107142D01*
X139952380Y-102678571D02*
X138952380Y-102678571D01*
X138952380Y-102297619D01*
X139000000Y-102202380D01*
X139047619Y-102154761D01*
X139142857Y-102107142D01*
X139285714Y-102107142D01*
X139380952Y-102154761D01*
X139428571Y-102202380D01*
X139476190Y-102297619D01*
X139476190Y-102678571D01*
X139952380Y-101154761D02*
X139952380Y-101726190D01*
X139952380Y-101440476D02*
X138952380Y-101440476D01*
X139095238Y-101535714D01*
X139190476Y-101630952D01*
X139238095Y-101726190D01*
%TO.C,U1*%
X141410700Y-90952380D02*
X141410700Y-91190476D01*
X141172604Y-91095238D02*
X141410700Y-91190476D01*
X141648795Y-91095238D01*
X141267842Y-91380952D02*
X141410700Y-91190476D01*
X141553557Y-91380952D01*
%TO.C,C7*%
X48833333Y-88787142D02*
X48785714Y-88834761D01*
X48642857Y-88882380D01*
X48547619Y-88882380D01*
X48404761Y-88834761D01*
X48309523Y-88739523D01*
X48261904Y-88644285D01*
X48214285Y-88453809D01*
X48214285Y-88310952D01*
X48261904Y-88120476D01*
X48309523Y-88025238D01*
X48404761Y-87930000D01*
X48547619Y-87882380D01*
X48642857Y-87882380D01*
X48785714Y-87930000D01*
X48833333Y-87977619D01*
X49166666Y-87882380D02*
X49833333Y-87882380D01*
X49404761Y-88882380D01*
%TO.C,EN1*%
X143428571Y-104464285D02*
X143428571Y-104130952D01*
X143952380Y-103988095D02*
X143952380Y-104464285D01*
X142952380Y-104464285D01*
X142952380Y-103988095D01*
X143952380Y-103559523D02*
X142952380Y-103559523D01*
X143952380Y-102988095D01*
X142952380Y-102988095D01*
X143952380Y-101988095D02*
X143952380Y-102559523D01*
X143952380Y-102273809D02*
X142952380Y-102273809D01*
X143095238Y-102369047D01*
X143190476Y-102464285D01*
X143238095Y-102559523D01*
D11*
%TO.C,C15*%
X243759165Y-82100000D02*
X243990835Y-82100000D01*
X243759165Y-82820000D02*
X243990835Y-82820000D01*
%TO.C,C11*%
X234515000Y-84865835D02*
X234515000Y-84634165D01*
X235235000Y-84865835D02*
X235235000Y-84634165D01*
%TO.C,C3*%
X57853733Y-83490000D02*
X58146267Y-83490000D01*
X57853733Y-84510000D02*
X58146267Y-84510000D01*
%TO.C,C8*%
X236735000Y-84865835D02*
X236735000Y-84634165D01*
X236015000Y-84865835D02*
X236015000Y-84634165D01*
%TO.C,R5*%
X240995000Y-97167621D02*
X240995000Y-96832379D01*
X241755000Y-97167621D02*
X241755000Y-96832379D01*
%TO.C,C16*%
X238359165Y-82610000D02*
X238590835Y-82610000D01*
X238359165Y-81890000D02*
X238590835Y-81890000D01*
%TO.C,R7*%
X146772500Y-99254724D02*
X146772500Y-98745276D01*
X145727500Y-99254724D02*
X145727500Y-98745276D01*
%TO.C,C13*%
X243759165Y-91540000D02*
X243990835Y-91540000D01*
X243759165Y-92260000D02*
X243990835Y-92260000D01*
%TO.C,R1*%
X49745276Y-77477500D02*
X50254724Y-77477500D01*
X49745276Y-78522500D02*
X50254724Y-78522500D01*
%TO.C,R9*%
X132977500Y-103754724D02*
X132977500Y-103245276D01*
X134022500Y-103754724D02*
X134022500Y-103245276D01*
%TO.C,R7*%
X55477500Y-96254724D02*
X55477500Y-95745276D01*
X56522500Y-96254724D02*
X56522500Y-95745276D01*
%TO.C,R6*%
X56522500Y-80745276D02*
X56522500Y-81254724D01*
X55477500Y-80745276D02*
X55477500Y-81254724D01*
%TO.C,C5*%
X54146267Y-92490000D02*
X53853733Y-92490000D01*
X54146267Y-93510000D02*
X53853733Y-93510000D01*
%TO.C,C4*%
X58146267Y-93510000D02*
X57853733Y-93510000D01*
X58146267Y-92490000D02*
X57853733Y-92490000D01*
%TO.C,STEP1*%
X140365000Y-105710000D02*
X142635000Y-105710000D01*
X140365000Y-101650000D02*
X140365000Y-105710000D01*
X142635000Y-105710000D02*
X142635000Y-101650000D01*
%TO.C,FB1*%
X238995000Y-70332379D02*
X238995000Y-70667621D01*
X239755000Y-70332379D02*
X239755000Y-70667621D01*
%TO.C,D1*%
X238860000Y-103340000D02*
X237390000Y-103340000D01*
X238860000Y-105800000D02*
X238860000Y-103340000D01*
X237390000Y-103340000D02*
X237390000Y-105800000D01*
%TO.C,SW2*%
X239475000Y-109400000D02*
X239475000Y-104600000D01*
X244275000Y-109400000D02*
X244275000Y-104600000D01*
X243075000Y-104600000D02*
X240675000Y-104600000D01*
X243075000Y-109400000D02*
X240675000Y-109400000D01*
X240775000Y-109100000D02*
X239775000Y-109100000D01*
X239775000Y-109100000D02*
X239775000Y-108100000D01*
%TO.C,U2*%
X232475000Y-73110000D02*
X234275000Y-73110000D01*
X234275000Y-69890000D02*
X231325000Y-69890000D01*
%TO.C,C10*%
X237515000Y-84865835D02*
X237515000Y-84634165D01*
X238235000Y-84865835D02*
X238235000Y-84634165D01*
%TO.C,R8*%
X140727500Y-98745276D02*
X140727500Y-99254724D01*
X141772500Y-98745276D02*
X141772500Y-99254724D01*
%TO.C,R1*%
X239995000Y-100667621D02*
X239995000Y-100332379D01*
X240755000Y-100667621D02*
X240755000Y-100332379D01*
%TO.C,J3*%
X241575000Y-64100000D02*
X241575000Y-68900000D01*
X234175000Y-64150000D02*
X234175000Y-68850000D01*
%TO.C,R5*%
X151254724Y-89977500D02*
X150745276Y-89977500D01*
X151254724Y-91022500D02*
X150745276Y-91022500D01*
%TO.C,U4*%
X236600000Y-81250000D02*
X236340000Y-81250000D01*
X236600000Y-75750000D02*
X236340000Y-75750000D01*
X231150000Y-75750000D02*
X231410000Y-75750000D01*
X231150000Y-78500000D02*
X231150000Y-81250000D01*
X236600000Y-78500000D02*
X236600000Y-75750000D01*
X236340000Y-75750000D02*
X236340000Y-74100000D01*
X231150000Y-81250000D02*
X231410000Y-81250000D01*
X236600000Y-78500000D02*
X236600000Y-81250000D01*
X231150000Y-78500000D02*
X231150000Y-75750000D01*
%TO.C,R2*%
X143227500Y-87254724D02*
X143227500Y-86745276D01*
X144272500Y-87254724D02*
X144272500Y-86745276D01*
%TO.C,R3*%
X242495000Y-97167621D02*
X242495000Y-96832379D01*
X243255000Y-97167621D02*
X243255000Y-96832379D01*
%TO.C,U1*%
X52590000Y-90110000D02*
X51890000Y-90110000D01*
X52590000Y-85890000D02*
X51890000Y-85890000D01*
X56110000Y-85890000D02*
X56110000Y-86590000D01*
X55410000Y-85890000D02*
X56110000Y-85890000D01*
X51890000Y-85890000D02*
X51890000Y-86590000D01*
X55410000Y-90110000D02*
X56110000Y-90110000D01*
X51890000Y-90110000D02*
X51890000Y-89410000D01*
%TO.C,R3*%
X58254724Y-98477500D02*
X57745276Y-98477500D01*
X58254724Y-99522500D02*
X57745276Y-99522500D01*
%TO.C,C6*%
X148240000Y-87146267D02*
X148240000Y-86853733D01*
X149260000Y-87146267D02*
X149260000Y-86853733D01*
%TO.C,U1*%
X147628900Y-95628900D02*
X147628900Y-94960140D01*
X146960140Y-95628900D02*
X147628900Y-95628900D01*
X142371100Y-94960140D02*
X142371100Y-95628900D01*
X147628900Y-91039860D02*
X147628900Y-90371100D01*
X142371100Y-90371100D02*
X142371100Y-91039860D01*
X143039860Y-90371100D02*
X142371100Y-90371100D01*
X142371100Y-95628900D02*
X143039860Y-95628900D01*
X147628900Y-90371100D02*
X146960140Y-90371100D01*
G36*
X148309899Y-92190499D02*
G01*
X148055899Y-92190499D01*
X148055899Y-91809499D01*
X148309899Y-91809499D01*
X148309899Y-92190499D01*
G37*
D12*
X148309899Y-92190499D02*
X148055899Y-92190499D01*
X148055899Y-91809499D01*
X148309899Y-91809499D01*
X148309899Y-92190499D01*
G36*
X144690501Y-96309899D02*
G01*
X144309501Y-96309899D01*
X144309501Y-96055899D01*
X144690501Y-96055899D01*
X144690501Y-96309899D01*
G37*
X144690501Y-96309899D02*
X144309501Y-96309899D01*
X144309501Y-96055899D01*
X144690501Y-96055899D01*
X144690501Y-96309899D01*
D11*
%TO.C,R4*%
X150745276Y-96022500D02*
X151254724Y-96022500D01*
X150745276Y-94977500D02*
X151254724Y-94977500D01*
%TO.C,R2*%
X57745276Y-77477500D02*
X58254724Y-77477500D01*
X57745276Y-78522500D02*
X58254724Y-78522500D01*
%TO.C,C4*%
X243759165Y-88140000D02*
X243990835Y-88140000D01*
X243759165Y-88860000D02*
X243990835Y-88860000D01*
%TO.C,R4*%
X50254724Y-98477500D02*
X49745276Y-98477500D01*
X50254724Y-99522500D02*
X49745276Y-99522500D01*
%TO.C,U1*%
X234265000Y-94610000D02*
X234265000Y-93960000D01*
X240835000Y-87390000D02*
X241485000Y-87390000D01*
X241485000Y-87390000D02*
X241485000Y-88040000D01*
X241485000Y-94610000D02*
X241485000Y-93960000D01*
X234915000Y-87390000D02*
X234265000Y-87390000D01*
X234915000Y-94610000D02*
X234265000Y-94610000D01*
X240835000Y-94610000D02*
X241485000Y-94610000D01*
%TO.C,C4*%
X150853733Y-92490000D02*
X151146267Y-92490000D01*
X150853733Y-93510000D02*
X151146267Y-93510000D01*
%TO.C,C2*%
X243235000Y-84865835D02*
X243235000Y-84634165D01*
X242515000Y-84865835D02*
X242515000Y-84634165D01*
%TO.C,C9*%
X239515000Y-96884165D02*
X239515000Y-97115835D01*
X240235000Y-96884165D02*
X240235000Y-97115835D01*
%TO.C,R2*%
X239995000Y-84582379D02*
X239995000Y-84917621D01*
X240755000Y-84582379D02*
X240755000Y-84917621D01*
%TO.C,C3*%
X233015000Y-84865835D02*
X233015000Y-84634165D01*
X233735000Y-84865835D02*
X233735000Y-84634165D01*
%TO.C,Y1*%
X237375000Y-102150000D02*
X237375000Y-98850000D01*
X237375000Y-98850000D02*
X233375000Y-98850000D01*
%TO.C,SW1*%
X233275000Y-109100000D02*
X232275000Y-109100000D01*
X235575000Y-104600000D02*
X233175000Y-104600000D01*
X231975000Y-109400000D02*
X231975000Y-104600000D01*
X236775000Y-109400000D02*
X236775000Y-104600000D01*
X235575000Y-109400000D02*
X233175000Y-109400000D01*
X232275000Y-109100000D02*
X232275000Y-108100000D01*
%TO.C,C3*%
X139146267Y-94990000D02*
X138853733Y-94990000D01*
X139146267Y-96010000D02*
X138853733Y-96010000D01*
%TO.C,C17*%
X231990835Y-91840000D02*
X231759165Y-91840000D01*
X231990835Y-92560000D02*
X231759165Y-92560000D01*
%TO.C,C8*%
X49146267Y-89510000D02*
X48853733Y-89510000D01*
X49146267Y-88490000D02*
X48853733Y-88490000D01*
%TO.C,R8*%
X51477500Y-96254724D02*
X51477500Y-95745276D01*
X52522500Y-96254724D02*
X52522500Y-95745276D01*
%TO.C,C5*%
X232235000Y-100384165D02*
X232235000Y-100615835D01*
X231515000Y-100384165D02*
X231515000Y-100615835D01*
X141760000Y-87146267D02*
X141760000Y-86853733D01*
X140740000Y-87146267D02*
X140740000Y-86853733D01*
%TO.C,C1*%
X243759165Y-87360000D02*
X243990835Y-87360000D01*
X243759165Y-86640000D02*
X243990835Y-86640000D01*
%TO.C,R6*%
X242255000Y-100667621D02*
X242255000Y-100332379D01*
X241495000Y-100667621D02*
X241495000Y-100332379D01*
%TO.C,C14*%
X241326665Y-71860000D02*
X241558335Y-71860000D01*
X241326665Y-71140000D02*
X241558335Y-71140000D01*
%TO.C,C2*%
X139490000Y-92646267D02*
X139490000Y-92353733D01*
X140510000Y-92646267D02*
X140510000Y-92353733D01*
%TO.C,U3*%
X237965000Y-75150000D02*
X237965000Y-78910000D01*
X244785000Y-78910000D02*
X243525000Y-78910000D01*
X237965000Y-78910000D02*
X239225000Y-78910000D01*
X244785000Y-72900000D02*
X244785000Y-78910000D01*
%TO.C,R7*%
X237255000Y-71832379D02*
X237255000Y-72167621D01*
X236495000Y-71832379D02*
X236495000Y-72167621D01*
%TO.C,R1*%
X136977500Y-92754724D02*
X136977500Y-92245276D01*
X138022500Y-92754724D02*
X138022500Y-92245276D01*
%TO.C,C7*%
X238015000Y-96884165D02*
X238015000Y-97115835D01*
X238735000Y-96884165D02*
X238735000Y-97115835D01*
X49146267Y-87510000D02*
X48853733Y-87510000D01*
X49146267Y-86490000D02*
X48853733Y-86490000D01*
%TO.C,C12*%
X241985000Y-84865835D02*
X241985000Y-84634165D01*
X241265000Y-84865835D02*
X241265000Y-84634165D01*
%TO.C,R10*%
X130477500Y-103245276D02*
X130477500Y-103754724D01*
X131522500Y-103245276D02*
X131522500Y-103754724D01*
%TO.C,R4*%
X239505000Y-84582379D02*
X239505000Y-84917621D01*
X238745000Y-84582379D02*
X238745000Y-84917621D01*
%TO.C,C2*%
X53853733Y-84510000D02*
X54146267Y-84510000D01*
X53853733Y-83490000D02*
X54146267Y-83490000D01*
%TO.C,C1*%
X49853733Y-84510000D02*
X50146267Y-84510000D01*
X49853733Y-83490000D02*
X50146267Y-83490000D01*
%TO.C,R6*%
X147977500Y-98745276D02*
X147977500Y-99254724D01*
X149022500Y-98745276D02*
X149022500Y-99254724D01*
%TO.C,EN1*%
X144365000Y-101650000D02*
X144365000Y-105710000D01*
X146635000Y-105710000D02*
X146635000Y-101650000D01*
X144365000Y-105710000D02*
X146635000Y-105710000D01*
%TO.C,R5*%
X52522500Y-80745276D02*
X52522500Y-81254724D01*
X51477500Y-80745276D02*
X51477500Y-81254724D01*
%TO.C,C6*%
X238515000Y-100384165D02*
X238515000Y-100615835D01*
X239235000Y-100384165D02*
X239235000Y-100615835D01*
%TO.C,R3*%
X146772500Y-86745276D02*
X146772500Y-87254724D01*
X145727500Y-86745276D02*
X145727500Y-87254724D01*
%TO.C,C1*%
X144260000Y-98853733D02*
X144260000Y-99146267D01*
X143240000Y-98853733D02*
X143240000Y-99146267D01*
%TO.C,C7*%
X147845563Y-81410000D02*
X146560000Y-81410000D01*
X143652500Y-82437500D02*
X143652500Y-81650000D01*
X148910000Y-74590000D02*
X146560000Y-74590000D01*
X143258750Y-82043750D02*
X144046250Y-82043750D01*
X143154437Y-81410000D02*
X144440000Y-81410000D01*
X143154437Y-81410000D02*
X142090000Y-80345563D01*
X142090000Y-80345563D02*
X142090000Y-74590000D01*
X142090000Y-74590000D02*
X144440000Y-74590000D01*
X148910000Y-80345563D02*
X148910000Y-74590000D01*
X147845563Y-81410000D02*
X148910000Y-80345563D01*
%TO.C,R8*%
X237255000Y-97167621D02*
X237255000Y-96832379D01*
X236495000Y-97167621D02*
X236495000Y-96832379D01*
%TO.C,C6*%
X50146267Y-93510000D02*
X49853733Y-93510000D01*
X50146267Y-92490000D02*
X49853733Y-92490000D01*
%TD*%
%LPC*%
D13*
%TO.C,C15*%
X243307500Y-82460000D03*
X244442500Y-82460000D03*
%TD*%
D14*
%TO.C,C11*%
X234875000Y-85317500D03*
X234875000Y-84182500D03*
%TD*%
D15*
%TO.C,C3*%
X57137500Y-84000000D03*
X58862500Y-84000000D03*
%TD*%
D14*
%TO.C,C8*%
X236375000Y-85317500D03*
X236375000Y-84182500D03*
%TD*%
D16*
%TO.C,R5*%
X241375000Y-97597500D03*
X241375000Y-96402500D03*
%TD*%
D13*
%TO.C,C16*%
X237907500Y-82250000D03*
X239042500Y-82250000D03*
%TD*%
D17*
%TO.C,R7*%
X146250000Y-99912500D03*
X146250000Y-98087500D03*
%TD*%
D13*
%TO.C,C13*%
X243307500Y-91900000D03*
X244442500Y-91900000D03*
%TD*%
D18*
%TO.C,R1*%
X49087500Y-78000000D03*
X50912500Y-78000000D03*
%TD*%
D17*
%TO.C,R9*%
X133500000Y-104412500D03*
X133500000Y-102587500D03*
%TD*%
%TO.C,R7*%
X56000000Y-96912500D03*
X56000000Y-95087500D03*
%TD*%
D19*
%TO.C,R6*%
X56000000Y-80087500D03*
X56000000Y-81912500D03*
%TD*%
D20*
%TO.C,C5*%
X54862500Y-93000000D03*
X53137500Y-93000000D03*
%TD*%
%TO.C,C4*%
X58862500Y-93000000D03*
X57137500Y-93000000D03*
%TD*%
D21*
%TO.C,STEP1*%
X141500000Y-104737500D03*
X141500000Y-101762500D03*
%TD*%
D22*
%TO.C,FB1*%
X239375000Y-69902500D03*
X239375000Y-71097500D03*
%TD*%
D23*
%TO.C,D1*%
X238125000Y-104125000D03*
X238125000Y-105875000D03*
%TD*%
D24*
%TO.C,SW2*%
X240025000Y-110000000D03*
X240025000Y-104000000D03*
X243725000Y-110000000D03*
X243725000Y-104000000D03*
%TD*%
D25*
%TO.C,U2*%
X232025000Y-70550000D03*
X232025000Y-71500000D03*
X232025000Y-72450000D03*
X234725000Y-72450000D03*
X234725000Y-71500000D03*
X234725000Y-70550000D03*
%TD*%
D14*
%TO.C,C10*%
X237875000Y-85317500D03*
X237875000Y-84182500D03*
%TD*%
D19*
%TO.C,R8*%
X141250000Y-98087500D03*
X141250000Y-99912500D03*
%TD*%
D16*
%TO.C,R1*%
X240375000Y-101097500D03*
X240375000Y-99902500D03*
%TD*%
D26*
%TO.C,J3*%
X239175000Y-68225000D03*
X238525000Y-68225000D03*
X237875000Y-68225000D03*
X237225000Y-68225000D03*
X236575000Y-68225000D03*
D27*
X235050000Y-65550000D03*
D28*
X235875000Y-67700000D03*
X239875000Y-67700000D03*
D27*
X240700000Y-65550000D03*
%TD*%
D29*
%TO.C,R5*%
X151912500Y-90500000D03*
X150087500Y-90500000D03*
%TD*%
D30*
%TO.C,U4*%
X235780000Y-74900000D03*
X234510000Y-74900000D03*
X233240000Y-74900000D03*
X231970000Y-74900000D03*
X231970000Y-82100000D03*
X233240000Y-82100000D03*
X234510000Y-82100000D03*
X235780000Y-82100000D03*
%TD*%
D17*
%TO.C,R2*%
X143750000Y-87912500D03*
X143750000Y-86087500D03*
%TD*%
D16*
%TO.C,R3*%
X242875000Y-97597500D03*
X242875000Y-96402500D03*
%TD*%
D31*
%TO.C,U1*%
X55962500Y-88975000D03*
X55962500Y-88325000D03*
X55962500Y-87675000D03*
X55962500Y-87025000D03*
D32*
X54975000Y-86037500D03*
X54325000Y-86037500D03*
X53675000Y-86037500D03*
X53025000Y-86037500D03*
D31*
X52037500Y-87025000D03*
X52037500Y-87675000D03*
X52037500Y-88325000D03*
X52037500Y-88975000D03*
D32*
X53025000Y-89962500D03*
X53675000Y-89962500D03*
X54325000Y-89962500D03*
X54975000Y-89962500D03*
D33*
X54000000Y-88000000D03*
%TD*%
D29*
%TO.C,R3*%
X58912500Y-99000000D03*
X57087500Y-99000000D03*
%TD*%
D34*
%TO.C,C6*%
X148750000Y-87862500D03*
X148750000Y-86137500D03*
%TD*%
D35*
%TO.C,U1*%
X142652900Y-91500000D03*
X142652900Y-91999999D03*
X142652900Y-92500001D03*
X142652900Y-93000000D03*
X142652900Y-93499999D03*
X142652900Y-94000001D03*
X142652900Y-94500000D03*
D36*
X143500000Y-95347100D03*
X143999999Y-95347100D03*
X144500001Y-95347100D03*
X145000000Y-95347100D03*
X145499999Y-95347100D03*
X146000001Y-95347100D03*
X146500000Y-95347100D03*
D35*
X147347100Y-94500000D03*
X147347100Y-94000001D03*
X147347100Y-93499999D03*
X147347100Y-93000000D03*
X147347100Y-92500001D03*
X147347100Y-91999999D03*
X147347100Y-91500000D03*
D36*
X146500000Y-90652900D03*
X146000001Y-90652900D03*
X145499999Y-90652900D03*
X145000000Y-90652900D03*
X144500001Y-90652900D03*
X143999999Y-90652900D03*
X143500000Y-90652900D03*
D37*
X145000000Y-93000000D03*
%TD*%
D18*
%TO.C,R4*%
X150087500Y-95500000D03*
X151912500Y-95500000D03*
%TD*%
%TO.C,R2*%
X57087500Y-78000000D03*
X58912500Y-78000000D03*
%TD*%
D13*
%TO.C,C4*%
X243307500Y-88500000D03*
X244442500Y-88500000D03*
%TD*%
D29*
%TO.C,R4*%
X50912500Y-99000000D03*
X49087500Y-99000000D03*
%TD*%
D38*
%TO.C,U1*%
X234437500Y-88400000D03*
X234437500Y-88800000D03*
X234437500Y-89200000D03*
X234437500Y-89600000D03*
X234437500Y-90000000D03*
X234437500Y-90400000D03*
X234437500Y-90800000D03*
X234437500Y-91200000D03*
X234437500Y-91600000D03*
X234437500Y-92000000D03*
X234437500Y-92400000D03*
X234437500Y-92800000D03*
X234437500Y-93200000D03*
X234437500Y-93600000D03*
D39*
X235275000Y-94437500D03*
X235675000Y-94437500D03*
X236075000Y-94437500D03*
X236475000Y-94437500D03*
X236875000Y-94437500D03*
X237275000Y-94437500D03*
X237675000Y-94437500D03*
X238075000Y-94437500D03*
X238475000Y-94437500D03*
X238875000Y-94437500D03*
X239275000Y-94437500D03*
X239675000Y-94437500D03*
X240075000Y-94437500D03*
X240475000Y-94437500D03*
D38*
X241312500Y-93600000D03*
X241312500Y-93200000D03*
X241312500Y-92800000D03*
X241312500Y-92400000D03*
X241312500Y-92000000D03*
X241312500Y-91600000D03*
X241312500Y-91200000D03*
X241312500Y-90800000D03*
X241312500Y-90400000D03*
X241312500Y-90000000D03*
X241312500Y-89600000D03*
X241312500Y-89200000D03*
X241312500Y-88800000D03*
X241312500Y-88400000D03*
D39*
X240475000Y-87562500D03*
X240075000Y-87562500D03*
X239675000Y-87562500D03*
X239275000Y-87562500D03*
X238875000Y-87562500D03*
X238475000Y-87562500D03*
X238075000Y-87562500D03*
X237675000Y-87562500D03*
X237275000Y-87562500D03*
X236875000Y-87562500D03*
X236475000Y-87562500D03*
X236075000Y-87562500D03*
X235675000Y-87562500D03*
X235275000Y-87562500D03*
D40*
X237875000Y-91000000D03*
%TD*%
D15*
%TO.C,C4*%
X150137500Y-93000000D03*
X151862500Y-93000000D03*
%TD*%
D14*
%TO.C,C2*%
X242875000Y-85317500D03*
X242875000Y-84182500D03*
%TD*%
D41*
%TO.C,C9*%
X239875000Y-96432500D03*
X239875000Y-97567500D03*
%TD*%
D22*
%TO.C,R2*%
X240375000Y-84152500D03*
X240375000Y-85347500D03*
%TD*%
D14*
%TO.C,C3*%
X233375000Y-85317500D03*
X233375000Y-84182500D03*
%TD*%
D42*
%TO.C,Y1*%
X236475000Y-99650000D03*
X234275000Y-99650000D03*
X234275000Y-101350000D03*
X236475000Y-101350000D03*
%TD*%
D24*
%TO.C,SW1*%
X232525000Y-110000000D03*
X232525000Y-104000000D03*
X236225000Y-110000000D03*
X236225000Y-104000000D03*
%TD*%
D20*
%TO.C,C3*%
X139862500Y-95500000D03*
X138137500Y-95500000D03*
%TD*%
D43*
%TO.C,C17*%
X232442500Y-92200000D03*
X231307500Y-92200000D03*
%TD*%
D20*
%TO.C,C8*%
X49862500Y-89000000D03*
X48137500Y-89000000D03*
%TD*%
D17*
%TO.C,R8*%
X52000000Y-96912500D03*
X52000000Y-95087500D03*
%TD*%
D41*
%TO.C,C5*%
X231875000Y-99932500D03*
X231875000Y-101067500D03*
%TD*%
D34*
%TO.C,C5*%
X141250000Y-87862500D03*
X141250000Y-86137500D03*
%TD*%
D13*
%TO.C,C1*%
X243307500Y-87000000D03*
X244442500Y-87000000D03*
%TD*%
D16*
%TO.C,R6*%
X241875000Y-101097500D03*
X241875000Y-99902500D03*
%TD*%
D13*
%TO.C,C14*%
X240875000Y-71500000D03*
X242010000Y-71500000D03*
%TD*%
D34*
%TO.C,C2*%
X140000000Y-93362500D03*
X140000000Y-91637500D03*
%TD*%
D44*
%TO.C,U3*%
X243675000Y-73850000D03*
D45*
X241375000Y-80150000D03*
D44*
X241375000Y-73850000D03*
X239075000Y-73850000D03*
%TD*%
D22*
%TO.C,R7*%
X236875000Y-71402500D03*
X236875000Y-72597500D03*
%TD*%
D17*
%TO.C,R1*%
X137500000Y-93412500D03*
X137500000Y-91587500D03*
%TD*%
D41*
%TO.C,C7*%
X238375000Y-96432500D03*
X238375000Y-97567500D03*
%TD*%
D20*
%TO.C,C7*%
X49862500Y-87000000D03*
X48137500Y-87000000D03*
%TD*%
D14*
%TO.C,C12*%
X241625000Y-85317500D03*
X241625000Y-84182500D03*
%TD*%
D19*
%TO.C,R10*%
X131000000Y-102587500D03*
X131000000Y-104412500D03*
%TD*%
D22*
%TO.C,R4*%
X239125000Y-84152500D03*
X239125000Y-85347500D03*
%TD*%
D15*
%TO.C,C2*%
X53137500Y-84000000D03*
X54862500Y-84000000D03*
%TD*%
%TO.C,C1*%
X49137500Y-84000000D03*
X50862500Y-84000000D03*
%TD*%
D19*
%TO.C,R6*%
X148500000Y-98087500D03*
X148500000Y-99912500D03*
%TD*%
D21*
%TO.C,EN1*%
X145500000Y-104737500D03*
X145500000Y-101762500D03*
%TD*%
D19*
%TO.C,R5*%
X52000000Y-80087500D03*
X52000000Y-81912500D03*
%TD*%
D41*
%TO.C,C6*%
X238875000Y-99932500D03*
X238875000Y-101067500D03*
%TD*%
D19*
%TO.C,R3*%
X146250000Y-86087500D03*
X146250000Y-87912500D03*
%TD*%
D46*
%TO.C,C1*%
X143750000Y-98137500D03*
X143750000Y-99862500D03*
%TD*%
D47*
%TO.C,C7*%
X145500000Y-80800000D03*
X145500000Y-75200000D03*
%TD*%
D16*
%TO.C,R8*%
X236875000Y-97597500D03*
X236875000Y-96402500D03*
%TD*%
D20*
%TO.C,C6*%
X50862500Y-93000000D03*
X49137500Y-93000000D03*
%TD*%
M02*
