%TF.GenerationSoftware,KiCad,Pcbnew,(6.0.6)*%
%TF.CreationDate,2022-07-03T21:37:38+02:00*%
%TF.ProjectId,stencil,7374656e-6369-46c2-9e6b-696361645f70,rev?*%
%TF.SameCoordinates,Original*%
%TF.FileFunction,Paste,Top*%
%TF.FilePolarity,Positive*%
%FSLAX46Y46*%
G04 Gerber Fmt 4.6, Leading zero omitted, Abs format (unit mm)*
G04 Created by KiCad (PCBNEW (6.0.6)) date 2022-07-03 21:37:38*
%MOMM*%
%LPD*%
G01*
G04 APERTURE LIST*
G04 Aperture macros list*
%AMRoundRect*
0 Rectangle with rounded corners*
0 $1 Rounding radius*
0 $2 $3 $4 $5 $6 $7 $8 $9 X,Y pos of 4 corners*
0 Add a 4 corners polygon primitive as box body*
4,1,4,$2,$3,$4,$5,$6,$7,$8,$9,$2,$3,0*
0 Add four circle primitives for the rounded corners*
1,1,$1+$1,$2,$3*
1,1,$1+$1,$4,$5*
1,1,$1+$1,$6,$7*
1,1,$1+$1,$8,$9*
0 Add four rect primitives between the rounded corners*
20,1,$1+$1,$2,$3,$4,$5,0*
20,1,$1+$1,$4,$5,$6,$7,0*
20,1,$1+$1,$6,$7,$8,$9,0*
20,1,$1+$1,$8,$9,$2,$3,0*%
G04 Aperture macros list end*
%ADD10C,0.500000*%
%ADD11C,1.000000*%
%ADD12C,1.050000*%
%ADD13RoundRect,0.155000X-0.212500X-0.155000X0.212500X-0.155000X0.212500X0.155000X-0.212500X0.155000X0*%
%ADD14RoundRect,0.155000X0.155000X-0.212500X0.155000X0.212500X-0.155000X0.212500X-0.155000X-0.212500X0*%
%ADD15RoundRect,0.237500X-0.300000X-0.237500X0.300000X-0.237500X0.300000X0.237500X-0.300000X0.237500X0*%
%ADD16RoundRect,0.160000X0.160000X-0.197500X0.160000X0.197500X-0.160000X0.197500X-0.160000X-0.197500X0*%
%ADD17RoundRect,0.237500X0.237500X-0.250000X0.237500X0.250000X-0.237500X0.250000X-0.237500X-0.250000X0*%
%ADD18RoundRect,0.237500X-0.250000X-0.237500X0.250000X-0.237500X0.250000X0.237500X-0.250000X0.237500X0*%
%ADD19RoundRect,0.237500X-0.237500X0.250000X-0.237500X-0.250000X0.237500X-0.250000X0.237500X0.250000X0*%
%ADD20RoundRect,0.237500X0.300000X0.237500X-0.300000X0.237500X-0.300000X-0.237500X0.300000X-0.237500X0*%
%ADD21RoundRect,0.250001X0.624999X-0.462499X0.624999X0.462499X-0.624999X0.462499X-0.624999X-0.462499X0*%
%ADD22RoundRect,0.160000X-0.160000X0.197500X-0.160000X-0.197500X0.160000X-0.197500X0.160000X0.197500X0*%
%ADD23RoundRect,0.237500X-0.237500X0.287500X-0.237500X-0.287500X0.237500X-0.287500X0.237500X0.287500X0*%
%ADD24RoundRect,0.225000X0.225000X-0.475000X0.225000X0.475000X-0.225000X0.475000X-0.225000X-0.475000X0*%
%ADD25R,1.560000X0.650000*%
%ADD26R,0.400000X1.350000*%
%ADD27RoundRect,0.237500X0.250000X0.237500X-0.250000X0.237500X-0.250000X-0.237500X0.250000X-0.237500X0*%
%ADD28RoundRect,0.150000X-0.150000X0.650000X-0.150000X-0.650000X0.150000X-0.650000X0.150000X0.650000X0*%
%ADD29RoundRect,0.182500X0.182500X0.182500X-0.182500X0.182500X-0.182500X-0.182500X0.182500X-0.182500X0*%
%ADD30RoundRect,0.087500X0.325000X0.087500X-0.325000X0.087500X-0.325000X-0.087500X0.325000X-0.087500X0*%
%ADD31RoundRect,0.087500X0.087500X0.325000X-0.087500X0.325000X-0.087500X-0.325000X0.087500X-0.325000X0*%
%ADD32RoundRect,0.237500X0.237500X-0.300000X0.237500X0.300000X-0.237500X0.300000X-0.237500X-0.300000X0*%
%ADD33R,0.909599X0.254800*%
%ADD34R,0.254800X0.909599*%
%ADD35R,3.098800X3.098800*%
%ADD36RoundRect,0.249999X-0.395001X-0.395001X0.395001X-0.395001X0.395001X0.395001X-0.395001X0.395001X0*%
%ADD37RoundRect,0.050000X-0.387500X-0.050000X0.387500X-0.050000X0.387500X0.050000X-0.387500X0.050000X0*%
%ADD38RoundRect,0.050000X-0.050000X-0.387500X0.050000X-0.387500X0.050000X0.387500X-0.050000X0.387500X0*%
%ADD39RoundRect,0.155000X-0.155000X0.212500X-0.155000X-0.212500X0.155000X-0.212500X0.155000X0.212500X0*%
%ADD40R,1.400000X1.200000*%
%ADD41RoundRect,0.155000X0.212500X0.155000X-0.212500X0.155000X-0.212500X-0.155000X0.212500X-0.155000X0*%
%ADD42R,1.500000X2.000000*%
%ADD43R,3.800000X2.000000*%
%ADD44RoundRect,0.237500X-0.237500X0.300000X-0.237500X-0.300000X0.237500X-0.300000X0.237500X0.300000X0*%
%ADD45RoundRect,0.250000X0.550000X-1.500000X0.550000X1.500000X-0.550000X1.500000X-0.550000X-1.500000X0*%
G04 APERTURE END LIST*
D10*
X60500000Y-129500000D02*
G75*
G03*
X61000000Y-130000000I500000J0D01*
G01*
X104000000Y-46000000D02*
G75*
G03*
X103000000Y-47000000I7J-1000007D01*
G01*
X96000000Y-59000000D02*
X96000000Y-69000000D01*
X279500000Y-57500000D02*
G75*
G03*
X280000000Y-57000000I7J499993D01*
G01*
X12000000Y-129000000D02*
G75*
G03*
X13000000Y-130000000I1000000J0D01*
G01*
X233000000Y-46000000D02*
G75*
G03*
X232500000Y-46500000I7J-500007D01*
G01*
X280000000Y-71000000D02*
X280000000Y-81000000D01*
X196000000Y-59000000D02*
X196000000Y-69000000D01*
X196000000Y-83000000D02*
X196000000Y-93000000D01*
X219500014Y-46500000D02*
G75*
G03*
X219000000Y-46000000I-500007J-7D01*
G01*
X186500000Y-105500000D02*
G75*
G03*
X187000000Y-105000000I7J499993D01*
G01*
X151500014Y-129500000D02*
G75*
G03*
X152000000Y-130000000I499993J-7D01*
G01*
X138000000Y-130000000D02*
G75*
G03*
X138500000Y-129500000I7J499993D01*
G01*
X103500000Y-106500000D02*
G75*
G03*
X103000000Y-107000000I7J-500007D01*
G01*
X175500014Y-129500000D02*
G75*
G03*
X176000000Y-130000000I499993J-7D01*
G01*
X164000000Y-130000000D02*
X174000000Y-130000000D01*
D11*
X126125000Y-49250000D02*
G75*
G03*
X126125000Y-49250000I-500000J0D01*
G01*
D10*
X255000000Y-130000000D02*
G75*
G03*
X255500000Y-129500000I7J499993D01*
G01*
X174000000Y-130000000D02*
G75*
G03*
X174500000Y-129500000I7J499993D01*
G01*
X209000000Y-46000000D02*
X219000000Y-46000000D01*
X71000000Y-130000000D02*
G75*
G03*
X71500000Y-129500000I0J500000D01*
G01*
X231000000Y-130000000D02*
G75*
G03*
X231500000Y-129500000I7J499993D01*
G01*
D11*
X106750000Y-107375000D02*
G75*
G03*
X106750000Y-107375000I-500000J0D01*
G01*
D10*
X12500000Y-118500000D02*
G75*
G03*
X12000000Y-119000000I0J-500000D01*
G01*
D11*
X277250000Y-68625000D02*
G75*
G03*
X277250000Y-68625000I-500000J0D01*
G01*
X93250000Y-68625000D02*
G75*
G03*
X93250000Y-68625000I-500000J0D01*
G01*
D10*
X267500014Y-46500000D02*
G75*
G03*
X267000000Y-46000000I-500007J-7D01*
G01*
X255500014Y-46500000D02*
G75*
G03*
X255000000Y-46000000I-500007J-7D01*
G01*
X12000000Y-93000000D02*
G75*
G03*
X12500000Y-93500000I500000J0D01*
G01*
X114500014Y-46500000D02*
G75*
G03*
X114000000Y-46000000I-500007J-7D01*
G01*
X96000000Y-95000000D02*
X96000000Y-105000000D01*
X269000000Y-46000000D02*
X279000000Y-46000000D01*
X49000000Y-46000000D02*
G75*
G03*
X48500000Y-46500000I0J-500000D01*
G01*
X196000014Y-105000000D02*
G75*
G03*
X196500000Y-105500000I499993J-7D01*
G01*
X221000000Y-130000000D02*
X231000000Y-130000000D01*
X186000000Y-130000000D02*
G75*
G03*
X187000000Y-129000000I7J999993D01*
G01*
X140000000Y-46000000D02*
G75*
G03*
X139500000Y-46500000I7J-500007D01*
G01*
X103000000Y-119000000D02*
X103000000Y-129000000D01*
X47000000Y-130000000D02*
G75*
G03*
X47500000Y-129500000I0J500000D01*
G01*
X96000000Y-59000000D02*
G75*
G03*
X95500000Y-58500000I-500000J0D01*
G01*
X37000000Y-46000000D02*
X47000000Y-46000000D01*
X187000014Y-95000000D02*
G75*
G03*
X186500000Y-94500000I-500007J-7D01*
G01*
X114000000Y-130000000D02*
G75*
G03*
X114500000Y-129500000I7J499993D01*
G01*
X221000000Y-46000000D02*
X231000000Y-46000000D01*
X176000000Y-46000000D02*
X186000000Y-46000000D01*
X196000000Y-119000000D02*
X196000000Y-129000000D01*
X103000000Y-59000000D02*
X103000000Y-69000000D01*
X95500000Y-117500000D02*
G75*
G03*
X96000000Y-117000000I0J500000D01*
G01*
D12*
X184275000Y-126750000D02*
G75*
G03*
X184275000Y-126750000I-525000J0D01*
G01*
D10*
X25000000Y-46000000D02*
G75*
G03*
X24500000Y-46500000I0J-500000D01*
G01*
X186500000Y-117500000D02*
G75*
G03*
X187000000Y-117000000I7J499993D01*
G01*
X280000014Y-71000000D02*
G75*
G03*
X279500000Y-70500000I-500007J-7D01*
G01*
X196500000Y-118500000D02*
G75*
G03*
X196000000Y-119000000I7J-500007D01*
G01*
X187000014Y-83000000D02*
G75*
G03*
X186500000Y-82500000I-500007J-7D01*
G01*
X35000000Y-130000000D02*
G75*
G03*
X35500000Y-129500000I0J500000D01*
G01*
X103000000Y-95000000D02*
X103000000Y-105000000D01*
X196000000Y-47000000D02*
X196000000Y-57000000D01*
D11*
X15750000Y-88000000D02*
G75*
G03*
X15750000Y-88000000I-500000J0D01*
G01*
D10*
X208500014Y-129500000D02*
G75*
G03*
X209000000Y-130000000I499993J-7D01*
G01*
X197000000Y-130000000D02*
X207000000Y-130000000D01*
X187000014Y-59000000D02*
G75*
G03*
X186500000Y-58500000I-500007J-7D01*
G01*
X96000000Y-47000000D02*
X96000000Y-57000000D01*
X23000000Y-130000000D02*
G75*
G03*
X23500000Y-129500000I0J500000D01*
G01*
X116000000Y-46000000D02*
X126000000Y-46000000D01*
X209000000Y-46000000D02*
G75*
G03*
X208500000Y-46500000I7J-500007D01*
G01*
D12*
X277275000Y-49250000D02*
G75*
G03*
X277275000Y-49250000I-525000J0D01*
G01*
D10*
X73000000Y-46000000D02*
X83000000Y-46000000D01*
X187000000Y-83000000D02*
X187000000Y-93000000D01*
X96000000Y-119000000D02*
X96000000Y-129000000D01*
X279000000Y-130000000D02*
G75*
G03*
X280000000Y-129000000I7J999993D01*
G01*
D11*
X184250000Y-107375000D02*
G75*
G03*
X184250000Y-107375000I-500000J0D01*
G01*
D10*
X95500000Y-93500000D02*
G75*
G03*
X96000000Y-93000000I0J500000D01*
G01*
D11*
X164875000Y-49250000D02*
G75*
G03*
X164875000Y-49250000I-500000J0D01*
G01*
D10*
X36500000Y-129500000D02*
G75*
G03*
X37000000Y-130000000I500000J0D01*
G01*
X162500014Y-46500000D02*
G75*
G03*
X162000000Y-46000000I-500007J-7D01*
G01*
D11*
X219125000Y-126750000D02*
G75*
G03*
X219125000Y-126750000I-500000J0D01*
G01*
D10*
X280000014Y-47000000D02*
G75*
G03*
X279000000Y-46000000I-1000007J-7D01*
G01*
X280000014Y-119000000D02*
G75*
G03*
X279500000Y-118500000I-500007J-7D01*
G01*
X59000000Y-130000000D02*
G75*
G03*
X59500000Y-129500000I0J500000D01*
G01*
X279500000Y-117500000D02*
G75*
G03*
X280000000Y-117000000I7J499993D01*
G01*
X85000000Y-46000000D02*
X95000000Y-46000000D01*
X95000000Y-130000000D02*
G75*
G03*
X96000000Y-129000000I0J1000000D01*
G01*
D12*
X93275000Y-126750000D02*
G75*
G03*
X93275000Y-126750000I-525000J0D01*
G01*
D10*
X245000000Y-46000000D02*
G75*
G03*
X244500000Y-46500000I7J-500007D01*
G01*
D11*
X277250000Y-107375000D02*
G75*
G03*
X277250000Y-107375000I-500000J0D01*
G01*
D10*
X103500000Y-70500000D02*
G75*
G03*
X103000000Y-71000000I7J-500007D01*
G01*
X12500000Y-70500000D02*
G75*
G03*
X12000000Y-71000000I0J-500000D01*
G01*
D12*
X277275000Y-126750000D02*
G75*
G03*
X277275000Y-126750000I-525000J0D01*
G01*
D10*
X103000014Y-129000000D02*
G75*
G03*
X104000000Y-130000000I999993J-7D01*
G01*
X279500000Y-105500000D02*
G75*
G03*
X280000000Y-105000000I7J499993D01*
G01*
X279500000Y-69500000D02*
G75*
G03*
X280000000Y-69000000I7J499993D01*
G01*
X103000000Y-47000000D02*
X103000000Y-57000000D01*
D11*
X277250000Y-88000000D02*
G75*
G03*
X277250000Y-88000000I-500000J0D01*
G01*
D10*
X103500000Y-118500000D02*
G75*
G03*
X103000000Y-119000000I7J-500007D01*
G01*
X37000000Y-46000000D02*
G75*
G03*
X36500000Y-46500000I0J-500000D01*
G01*
X12000000Y-57000000D02*
G75*
G03*
X12500000Y-57500000I500000J0D01*
G01*
X139500014Y-129500000D02*
G75*
G03*
X140000000Y-130000000I499993J-7D01*
G01*
X196000000Y-107000000D02*
X196000000Y-117000000D01*
X12000000Y-107000000D02*
X12000000Y-117000000D01*
D11*
X15750000Y-107375000D02*
G75*
G03*
X15750000Y-107375000I-500000J0D01*
G01*
D10*
X269000000Y-130000000D02*
X279000000Y-130000000D01*
X104000000Y-130000000D02*
X114000000Y-130000000D01*
X233000000Y-46000000D02*
X243000000Y-46000000D01*
X83000000Y-130000000D02*
G75*
G03*
X83500000Y-129500000I0J500000D01*
G01*
X280000014Y-83000000D02*
G75*
G03*
X279500000Y-82500000I-500007J-7D01*
G01*
X12000000Y-105000000D02*
G75*
G03*
X12500000Y-105500000I500000J0D01*
G01*
X152000000Y-46000000D02*
G75*
G03*
X151500000Y-46500000I7J-500007D01*
G01*
X257000000Y-130000000D02*
X267000000Y-130000000D01*
D11*
X145500000Y-49250000D02*
G75*
G03*
X145500000Y-49250000I-500000J0D01*
G01*
D10*
X72500000Y-129500000D02*
G75*
G03*
X73000000Y-130000000I500000J0D01*
G01*
D12*
X106775000Y-49250000D02*
G75*
G03*
X106775000Y-49250000I-525000J0D01*
G01*
X106775000Y-126750000D02*
G75*
G03*
X106775000Y-126750000I-525000J0D01*
G01*
D11*
X106750000Y-68625000D02*
G75*
G03*
X106750000Y-68625000I-500000J0D01*
G01*
D10*
X196500000Y-70500000D02*
G75*
G03*
X196000000Y-71000000I7J-500007D01*
G01*
X95500000Y-81500000D02*
G75*
G03*
X96000000Y-81000000I0J500000D01*
G01*
D12*
X184275000Y-49250000D02*
G75*
G03*
X184275000Y-49250000I-525000J0D01*
G01*
D10*
X128000000Y-130000000D02*
X138000000Y-130000000D01*
X103000014Y-81000000D02*
G75*
G03*
X103500000Y-81500000I499993J-7D01*
G01*
X61000000Y-46000000D02*
X71000000Y-46000000D01*
X25000000Y-130000000D02*
X35000000Y-130000000D01*
X83500000Y-46500000D02*
G75*
G03*
X83000000Y-46000000I-500000J0D01*
G01*
X280000000Y-107000000D02*
X280000000Y-117000000D01*
X73000000Y-46000000D02*
G75*
G03*
X72500000Y-46500000I0J-500000D01*
G01*
X12000000Y-117000000D02*
G75*
G03*
X12500000Y-117500000I500000J0D01*
G01*
X24500000Y-129500000D02*
G75*
G03*
X25000000Y-130000000I500000J0D01*
G01*
X115500014Y-129500000D02*
G75*
G03*
X116000000Y-130000000I499993J-7D01*
G01*
X126000000Y-130000000D02*
G75*
G03*
X126500000Y-129500000I7J499993D01*
G01*
X220500014Y-129500000D02*
G75*
G03*
X221000000Y-130000000I499993J-7D01*
G01*
X12000000Y-47000000D02*
X12000000Y-57000000D01*
X12000000Y-81000000D02*
G75*
G03*
X12500000Y-81500000I500000J0D01*
G01*
X103000014Y-105000000D02*
G75*
G03*
X103500000Y-105500000I499993J-7D01*
G01*
X280000000Y-59000000D02*
X280000000Y-69000000D01*
D11*
X257875000Y-49250000D02*
G75*
G03*
X257875000Y-49250000I-500000J0D01*
G01*
D10*
X85000000Y-46000000D02*
G75*
G03*
X84500000Y-46500000I0J-500000D01*
G01*
X279500000Y-93500000D02*
G75*
G03*
X280000000Y-93000000I7J499993D01*
G01*
X95500000Y-57500000D02*
G75*
G03*
X96000000Y-57000000I0J500000D01*
G01*
X196000014Y-129000000D02*
G75*
G03*
X197000000Y-130000000I999993J-7D01*
G01*
D11*
X164875000Y-126750000D02*
G75*
G03*
X164875000Y-126750000I-500000J0D01*
G01*
X184250000Y-88000000D02*
G75*
G03*
X184250000Y-88000000I-500000J0D01*
G01*
X106750000Y-88000000D02*
G75*
G03*
X106750000Y-88000000I-500000J0D01*
G01*
D10*
X187000000Y-71000000D02*
X187000000Y-81000000D01*
D12*
X199775000Y-126750000D02*
G75*
G03*
X199775000Y-126750000I-525000J0D01*
G01*
D10*
X196500000Y-94500000D02*
G75*
G03*
X196000000Y-95000000I7J-500007D01*
G01*
X103000000Y-71000000D02*
X103000000Y-81000000D01*
X186500000Y-69500000D02*
G75*
G03*
X187000000Y-69000000I7J499993D01*
G01*
X96000000Y-47000000D02*
G75*
G03*
X95000000Y-46000000I-1000000J0D01*
G01*
X103000014Y-57000000D02*
G75*
G03*
X103500000Y-57500000I499993J-7D01*
G01*
X25000000Y-46000000D02*
X35000000Y-46000000D01*
X267000000Y-130000000D02*
G75*
G03*
X267500000Y-129500000I7J499993D01*
G01*
X37000000Y-130000000D02*
X47000000Y-130000000D01*
X207000000Y-130000000D02*
G75*
G03*
X207500000Y-129500000I7J499993D01*
G01*
D11*
X15750000Y-68625000D02*
G75*
G03*
X15750000Y-68625000I-500000J0D01*
G01*
D10*
X103000000Y-107000000D02*
X103000000Y-117000000D01*
D11*
X35125000Y-126750000D02*
G75*
G03*
X35125000Y-126750000I-500000J0D01*
G01*
X54500000Y-49250000D02*
G75*
G03*
X54500000Y-49250000I-500000J0D01*
G01*
D10*
X12500000Y-82500000D02*
G75*
G03*
X12000000Y-83000000I0J-500000D01*
G01*
X96000000Y-107000000D02*
G75*
G03*
X95500000Y-106500000I-500000J0D01*
G01*
X280000014Y-59000000D02*
G75*
G03*
X279500000Y-58500000I-500007J-7D01*
G01*
X128000000Y-46000000D02*
X138000000Y-46000000D01*
X176000000Y-130000000D02*
X186000000Y-130000000D01*
X12000000Y-95000000D02*
X12000000Y-105000000D01*
D11*
X238500000Y-49250000D02*
G75*
G03*
X238500000Y-49250000I-500000J0D01*
G01*
D10*
X12500000Y-58500000D02*
G75*
G03*
X12000000Y-59000000I0J-500000D01*
G01*
X232500014Y-129500000D02*
G75*
G03*
X233000000Y-130000000I499993J-7D01*
G01*
X187000000Y-107000000D02*
X187000000Y-117000000D01*
D11*
X199750000Y-88000000D02*
G75*
G03*
X199750000Y-88000000I-500000J0D01*
G01*
D10*
X221000000Y-46000000D02*
G75*
G03*
X220500000Y-46500000I7J-500007D01*
G01*
X243000000Y-130000000D02*
G75*
G03*
X243500000Y-129500000I7J499993D01*
G01*
X257000000Y-46000000D02*
X267000000Y-46000000D01*
X138500014Y-46500000D02*
G75*
G03*
X138000000Y-46000000I-500007J-7D01*
G01*
X196000000Y-95000000D02*
X196000000Y-105000000D01*
X71500000Y-46500000D02*
G75*
G03*
X71000000Y-46000000I-500000J0D01*
G01*
D11*
X238500000Y-126750000D02*
G75*
G03*
X238500000Y-126750000I-500000J0D01*
G01*
D10*
X197000000Y-46000000D02*
X207000000Y-46000000D01*
X196000014Y-57000000D02*
G75*
G03*
X196500000Y-57500000I499993J-7D01*
G01*
X280000000Y-95000000D02*
X280000000Y-105000000D01*
X196000000Y-71000000D02*
X196000000Y-81000000D01*
X47500000Y-46500000D02*
G75*
G03*
X47000000Y-46000000I-500000J0D01*
G01*
X257000000Y-46000000D02*
G75*
G03*
X256500000Y-46500000I7J-500007D01*
G01*
X12000000Y-71000000D02*
X12000000Y-81000000D01*
X59500000Y-46500000D02*
G75*
G03*
X59000000Y-46000000I-500000J0D01*
G01*
X13000000Y-46000000D02*
G75*
G03*
X12000000Y-47000000I0J-1000000D01*
G01*
X96000000Y-71000000D02*
X96000000Y-81000000D01*
X12000000Y-83000000D02*
X12000000Y-93000000D01*
X73000000Y-130000000D02*
X83000000Y-130000000D01*
X243500014Y-46500000D02*
G75*
G03*
X243000000Y-46000000I-500007J-7D01*
G01*
X187000014Y-107000000D02*
G75*
G03*
X186500000Y-106500000I-500007J-7D01*
G01*
X280000000Y-83000000D02*
X280000000Y-93000000D01*
X196000014Y-93000000D02*
G75*
G03*
X196500000Y-93500000I499993J-7D01*
G01*
X164000000Y-46000000D02*
X174000000Y-46000000D01*
X280000000Y-47000000D02*
X280000000Y-57000000D01*
D11*
X35125000Y-49250000D02*
G75*
G03*
X35125000Y-49250000I-500000J0D01*
G01*
X199750000Y-107375000D02*
G75*
G03*
X199750000Y-107375000I-500000J0D01*
G01*
X184250000Y-68625000D02*
G75*
G03*
X184250000Y-68625000I-500000J0D01*
G01*
D10*
X280000000Y-119000000D02*
X280000000Y-129000000D01*
X186500000Y-93500000D02*
G75*
G03*
X187000000Y-93000000I7J499993D01*
G01*
X12000000Y-119000000D02*
X12000000Y-129000000D01*
X196500000Y-58500000D02*
G75*
G03*
X196000000Y-59000000I7J-500007D01*
G01*
X280000014Y-107000000D02*
G75*
G03*
X279500000Y-106500000I-500007J-7D01*
G01*
X61000000Y-46000000D02*
G75*
G03*
X60500000Y-46500000I0J-500000D01*
G01*
X162000000Y-130000000D02*
G75*
G03*
X162500000Y-129500000I7J499993D01*
G01*
X103000014Y-69000000D02*
G75*
G03*
X103500000Y-69500000I499993J-7D01*
G01*
X187000000Y-119000000D02*
X187000000Y-129000000D01*
X140000000Y-46000000D02*
X150000000Y-46000000D01*
X85000000Y-130000000D02*
X95000000Y-130000000D01*
X96000000Y-83000000D02*
G75*
G03*
X95500000Y-82500000I-500000J0D01*
G01*
X127500014Y-129500000D02*
G75*
G03*
X128000000Y-130000000I499993J-7D01*
G01*
X279500000Y-81500000D02*
G75*
G03*
X280000000Y-81000000I7J499993D01*
G01*
X48500000Y-129500000D02*
G75*
G03*
X49000000Y-130000000I500000J0D01*
G01*
X280000014Y-95000000D02*
G75*
G03*
X279500000Y-94500000I-500007J-7D01*
G01*
X96000000Y-95000000D02*
G75*
G03*
X95500000Y-94500000I-500000J0D01*
G01*
X96000000Y-119000000D02*
G75*
G03*
X95500000Y-118500000I-500000J0D01*
G01*
X196500000Y-106500000D02*
G75*
G03*
X196000000Y-107000000I7J-500007D01*
G01*
D11*
X257875000Y-126750000D02*
G75*
G03*
X257875000Y-126750000I-500000J0D01*
G01*
D10*
X95500000Y-69500000D02*
G75*
G03*
X96000000Y-69000000I0J500000D01*
G01*
X61000000Y-130000000D02*
X71000000Y-130000000D01*
X233000000Y-130000000D02*
X243000000Y-130000000D01*
X163500014Y-129500000D02*
G75*
G03*
X164000000Y-130000000I499993J-7D01*
G01*
X196000014Y-117000000D02*
G75*
G03*
X196500000Y-117500000I499993J-7D01*
G01*
D12*
X93275000Y-49250000D02*
G75*
G03*
X93275000Y-49250000I-525000J0D01*
G01*
X199775000Y-49250000D02*
G75*
G03*
X199775000Y-49250000I-525000J0D01*
G01*
D11*
X126125000Y-126750000D02*
G75*
G03*
X126125000Y-126750000I-500000J0D01*
G01*
D10*
X187000014Y-119000000D02*
G75*
G03*
X186500000Y-118500000I-500007J-7D01*
G01*
X152000000Y-130000000D02*
X162000000Y-130000000D01*
X187000014Y-47000000D02*
G75*
G03*
X186000000Y-46000000I-1000007J-7D01*
G01*
D11*
X73875000Y-49250000D02*
G75*
G03*
X73875000Y-49250000I-500000J0D01*
G01*
D10*
X268500014Y-129500000D02*
G75*
G03*
X269000000Y-130000000I499993J-7D01*
G01*
X186500000Y-81500000D02*
G75*
G03*
X187000000Y-81000000I7J499993D01*
G01*
X209000000Y-130000000D02*
X219000000Y-130000000D01*
X269000000Y-46000000D02*
G75*
G03*
X268500000Y-46500000I7J-500007D01*
G01*
X244500014Y-129500000D02*
G75*
G03*
X245000000Y-130000000I499993J-7D01*
G01*
X196000014Y-69000000D02*
G75*
G03*
X196500000Y-69500000I499993J-7D01*
G01*
X164000000Y-46000000D02*
G75*
G03*
X163500000Y-46500000I7J-500007D01*
G01*
X196500000Y-82500000D02*
G75*
G03*
X196000000Y-83000000I7J-500007D01*
G01*
X49000000Y-46000000D02*
X59000000Y-46000000D01*
D11*
X219125000Y-49250000D02*
G75*
G03*
X219125000Y-49250000I-500000J0D01*
G01*
D10*
X150000000Y-130000000D02*
G75*
G03*
X150500000Y-129500000I7J499993D01*
G01*
X103000014Y-117000000D02*
G75*
G03*
X103500000Y-117500000I499993J-7D01*
G01*
X245000000Y-130000000D02*
X255000000Y-130000000D01*
X231500014Y-46500000D02*
G75*
G03*
X231000000Y-46000000I-500007J-7D01*
G01*
X103500000Y-58500000D02*
G75*
G03*
X103000000Y-59000000I7J-500007D01*
G01*
X256500014Y-129500000D02*
G75*
G03*
X257000000Y-130000000I499993J-7D01*
G01*
D12*
X15775000Y-126750000D02*
G75*
G03*
X15775000Y-126750000I-525000J0D01*
G01*
D10*
X186500000Y-57500000D02*
G75*
G03*
X187000000Y-57000000I7J499993D01*
G01*
X95500000Y-105500000D02*
G75*
G03*
X96000000Y-105000000I0J500000D01*
G01*
D11*
X93250000Y-107375000D02*
G75*
G03*
X93250000Y-107375000I-500000J0D01*
G01*
D10*
X84500000Y-129500000D02*
G75*
G03*
X85000000Y-130000000I500000J0D01*
G01*
D12*
X15775000Y-49250000D02*
G75*
G03*
X15775000Y-49250000I-525000J0D01*
G01*
D10*
X176000000Y-46000000D02*
G75*
G03*
X175500000Y-46500000I7J-500007D01*
G01*
X12000000Y-59000000D02*
X12000000Y-69000000D01*
X12500000Y-106500000D02*
G75*
G03*
X12000000Y-107000000I0J-500000D01*
G01*
X219000000Y-130000000D02*
G75*
G03*
X219500000Y-129500000I7J499993D01*
G01*
X116000000Y-46000000D02*
G75*
G03*
X115500000Y-46500000I7J-500007D01*
G01*
X13000000Y-46000000D02*
X23000000Y-46000000D01*
X140000000Y-130000000D02*
X150000000Y-130000000D01*
D11*
X145500000Y-126750000D02*
G75*
G03*
X145500000Y-126750000I-500000J0D01*
G01*
D10*
X13000000Y-130000000D02*
X23000000Y-130000000D01*
X103000014Y-93000000D02*
G75*
G03*
X103500000Y-93500000I499993J-7D01*
G01*
X12000000Y-69000000D02*
G75*
G03*
X12500000Y-69500000I500000J0D01*
G01*
D11*
X93250000Y-88000000D02*
G75*
G03*
X93250000Y-88000000I-500000J0D01*
G01*
D10*
X187000014Y-71000000D02*
G75*
G03*
X186500000Y-70500000I-500007J-7D01*
G01*
X103000000Y-83000000D02*
X103000000Y-93000000D01*
X103500000Y-94500000D02*
G75*
G03*
X103000000Y-95000000I7J-500007D01*
G01*
D11*
X54500000Y-126750000D02*
G75*
G03*
X54500000Y-126750000I-500000J0D01*
G01*
D10*
X104000000Y-46000000D02*
X114000000Y-46000000D01*
X207500014Y-46500000D02*
G75*
G03*
X207000000Y-46000000I-500007J-7D01*
G01*
D11*
X73875000Y-126750000D02*
G75*
G03*
X73875000Y-126750000I-500000J0D01*
G01*
D10*
X152000000Y-46000000D02*
X162000000Y-46000000D01*
X96000000Y-83000000D02*
X96000000Y-93000000D01*
D11*
X199750000Y-68625000D02*
G75*
G03*
X199750000Y-68625000I-500000J0D01*
G01*
D10*
X187000000Y-47000000D02*
X187000000Y-57000000D01*
X96000000Y-71000000D02*
G75*
G03*
X95500000Y-70500000I-500000J0D01*
G01*
X23500000Y-46500000D02*
G75*
G03*
X23000000Y-46000000I-500000J0D01*
G01*
X126500014Y-46500000D02*
G75*
G03*
X126000000Y-46000000I-500007J-7D01*
G01*
X116000000Y-130000000D02*
X126000000Y-130000000D01*
X245000000Y-46000000D02*
X255000000Y-46000000D01*
X96000000Y-107000000D02*
X96000000Y-117000000D01*
X196000014Y-81000000D02*
G75*
G03*
X196500000Y-81500000I499993J-7D01*
G01*
X49000000Y-130000000D02*
X59000000Y-130000000D01*
X35500000Y-46500000D02*
G75*
G03*
X35000000Y-46000000I-500000J0D01*
G01*
X174500014Y-46500000D02*
G75*
G03*
X174000000Y-46000000I-500007J-7D01*
G01*
X150500014Y-46500000D02*
G75*
G03*
X150000000Y-46000000I-500007J-7D01*
G01*
X103500000Y-82500000D02*
G75*
G03*
X103000000Y-83000000I7J-500007D01*
G01*
X187000000Y-95000000D02*
X187000000Y-105000000D01*
X187000000Y-59000000D02*
X187000000Y-69000000D01*
X128000000Y-46000000D02*
G75*
G03*
X127500000Y-46500000I7J-500007D01*
G01*
X12500000Y-94500000D02*
G75*
G03*
X12000000Y-95000000I0J-500000D01*
G01*
X197000000Y-46000000D02*
G75*
G03*
X196000000Y-47000000I7J-1000007D01*
G01*
D13*
%TO.C,C15*%
X243307500Y-82460000D03*
X244442500Y-82460000D03*
%TD*%
D14*
%TO.C,C11*%
X234875000Y-85317500D03*
X234875000Y-84182500D03*
%TD*%
D15*
%TO.C,C3*%
X57137500Y-84000000D03*
X58862500Y-84000000D03*
%TD*%
D14*
%TO.C,C8*%
X236375000Y-85317500D03*
X236375000Y-84182500D03*
%TD*%
D16*
%TO.C,R5*%
X241375000Y-97597500D03*
X241375000Y-96402500D03*
%TD*%
D13*
%TO.C,C16*%
X237907500Y-82250000D03*
X239042500Y-82250000D03*
%TD*%
D17*
%TO.C,R7*%
X146250000Y-99912500D03*
X146250000Y-98087500D03*
%TD*%
D13*
%TO.C,C13*%
X243307500Y-91900000D03*
X244442500Y-91900000D03*
%TD*%
D18*
%TO.C,R1*%
X49087500Y-78000000D03*
X50912500Y-78000000D03*
%TD*%
D17*
%TO.C,R9*%
X133500000Y-104412500D03*
X133500000Y-102587500D03*
%TD*%
%TO.C,R7*%
X56000000Y-96912500D03*
X56000000Y-95087500D03*
%TD*%
D19*
%TO.C,R6*%
X56000000Y-80087500D03*
X56000000Y-81912500D03*
%TD*%
D20*
%TO.C,C5*%
X54862500Y-93000000D03*
X53137500Y-93000000D03*
%TD*%
%TO.C,C4*%
X58862500Y-93000000D03*
X57137500Y-93000000D03*
%TD*%
D21*
%TO.C,STEP1*%
X141500000Y-104737500D03*
X141500000Y-101762500D03*
%TD*%
D22*
%TO.C,FB1*%
X239375000Y-69902500D03*
X239375000Y-71097500D03*
%TD*%
D23*
%TO.C,D1*%
X238125000Y-104125000D03*
X238125000Y-105875000D03*
%TD*%
D24*
%TO.C,SW2*%
X240025000Y-110000000D03*
X240025000Y-104000000D03*
X243725000Y-110000000D03*
X243725000Y-104000000D03*
%TD*%
D25*
%TO.C,U2*%
X232025000Y-70550000D03*
X232025000Y-71500000D03*
X232025000Y-72450000D03*
X234725000Y-72450000D03*
X234725000Y-71500000D03*
X234725000Y-70550000D03*
%TD*%
D14*
%TO.C,C10*%
X237875000Y-85317500D03*
X237875000Y-84182500D03*
%TD*%
D19*
%TO.C,R8*%
X141250000Y-98087500D03*
X141250000Y-99912500D03*
%TD*%
D16*
%TO.C,R1*%
X240375000Y-101097500D03*
X240375000Y-99902500D03*
%TD*%
D26*
%TO.C,J3*%
X239175000Y-68225000D03*
X238525000Y-68225000D03*
X237875000Y-68225000D03*
X237225000Y-68225000D03*
X236575000Y-68225000D03*
%TD*%
D27*
%TO.C,R5*%
X151912500Y-90500000D03*
X150087500Y-90500000D03*
%TD*%
D28*
%TO.C,U4*%
X235780000Y-74900000D03*
X234510000Y-74900000D03*
X233240000Y-74900000D03*
X231970000Y-74900000D03*
X231970000Y-82100000D03*
X233240000Y-82100000D03*
X234510000Y-82100000D03*
X235780000Y-82100000D03*
%TD*%
D17*
%TO.C,R2*%
X143750000Y-87912500D03*
X143750000Y-86087500D03*
%TD*%
D16*
%TO.C,R3*%
X242875000Y-97597500D03*
X242875000Y-96402500D03*
%TD*%
D29*
%TO.C,U1*%
X53100000Y-88000000D03*
X54000000Y-87100000D03*
X54900000Y-88000000D03*
X53100000Y-88900000D03*
X54000000Y-88900000D03*
X54900000Y-88900000D03*
X54000000Y-88000000D03*
X54900000Y-87100000D03*
X53100000Y-87100000D03*
D30*
X55962500Y-88975000D03*
X55962500Y-88325000D03*
X55962500Y-87675000D03*
X55962500Y-87025000D03*
D31*
X54975000Y-86037500D03*
X54325000Y-86037500D03*
X53675000Y-86037500D03*
X53025000Y-86037500D03*
D30*
X52037500Y-87025000D03*
X52037500Y-87675000D03*
X52037500Y-88325000D03*
X52037500Y-88975000D03*
D31*
X53025000Y-89962500D03*
X53675000Y-89962500D03*
X54325000Y-89962500D03*
X54975000Y-89962500D03*
%TD*%
D27*
%TO.C,R3*%
X58912500Y-99000000D03*
X57087500Y-99000000D03*
%TD*%
D32*
%TO.C,C6*%
X148750000Y-87862500D03*
X148750000Y-86137500D03*
%TD*%
D33*
%TO.C,U1*%
X142652900Y-91500000D03*
X142652900Y-91999999D03*
X142652900Y-92500001D03*
X142652900Y-93000000D03*
X142652900Y-93499999D03*
X142652900Y-94000001D03*
X142652900Y-94500000D03*
D34*
X143500000Y-95347100D03*
X143999999Y-95347100D03*
X144500001Y-95347100D03*
X145000000Y-95347100D03*
X145499999Y-95347100D03*
X146000001Y-95347100D03*
X146500000Y-95347100D03*
D33*
X147347100Y-94500000D03*
X147347100Y-94000001D03*
X147347100Y-93499999D03*
X147347100Y-93000000D03*
X147347100Y-92500001D03*
X147347100Y-91999999D03*
X147347100Y-91500000D03*
D34*
X146500000Y-90652900D03*
X146000001Y-90652900D03*
X145499999Y-90652900D03*
X145000000Y-90652900D03*
X144500001Y-90652900D03*
X143999999Y-90652900D03*
X143500000Y-90652900D03*
D35*
X145000000Y-93000000D03*
%TD*%
D18*
%TO.C,R4*%
X150087500Y-95500000D03*
X151912500Y-95500000D03*
%TD*%
%TO.C,R2*%
X57087500Y-78000000D03*
X58912500Y-78000000D03*
%TD*%
D13*
%TO.C,C4*%
X243307500Y-88500000D03*
X244442500Y-88500000D03*
%TD*%
D27*
%TO.C,R4*%
X50912500Y-99000000D03*
X49087500Y-99000000D03*
%TD*%
D36*
%TO.C,U1*%
X238675000Y-91800000D03*
X237075000Y-91800000D03*
X237075000Y-90200000D03*
X238675000Y-90200000D03*
D37*
X234437500Y-88400000D03*
X234437500Y-88800000D03*
X234437500Y-89200000D03*
X234437500Y-89600000D03*
X234437500Y-90000000D03*
X234437500Y-90400000D03*
X234437500Y-90800000D03*
X234437500Y-91200000D03*
X234437500Y-91600000D03*
X234437500Y-92000000D03*
X234437500Y-92400000D03*
X234437500Y-92800000D03*
X234437500Y-93200000D03*
X234437500Y-93600000D03*
D38*
X235275000Y-94437500D03*
X235675000Y-94437500D03*
X236075000Y-94437500D03*
X236475000Y-94437500D03*
X236875000Y-94437500D03*
X237275000Y-94437500D03*
X237675000Y-94437500D03*
X238075000Y-94437500D03*
X238475000Y-94437500D03*
X238875000Y-94437500D03*
X239275000Y-94437500D03*
X239675000Y-94437500D03*
X240075000Y-94437500D03*
X240475000Y-94437500D03*
D37*
X241312500Y-93600000D03*
X241312500Y-93200000D03*
X241312500Y-92800000D03*
X241312500Y-92400000D03*
X241312500Y-92000000D03*
X241312500Y-91600000D03*
X241312500Y-91200000D03*
X241312500Y-90800000D03*
X241312500Y-90400000D03*
X241312500Y-90000000D03*
X241312500Y-89600000D03*
X241312500Y-89200000D03*
X241312500Y-88800000D03*
X241312500Y-88400000D03*
D38*
X240475000Y-87562500D03*
X240075000Y-87562500D03*
X239675000Y-87562500D03*
X239275000Y-87562500D03*
X238875000Y-87562500D03*
X238475000Y-87562500D03*
X238075000Y-87562500D03*
X237675000Y-87562500D03*
X237275000Y-87562500D03*
X236875000Y-87562500D03*
X236475000Y-87562500D03*
X236075000Y-87562500D03*
X235675000Y-87562500D03*
X235275000Y-87562500D03*
%TD*%
D15*
%TO.C,C4*%
X150137500Y-93000000D03*
X151862500Y-93000000D03*
%TD*%
D14*
%TO.C,C2*%
X242875000Y-85317500D03*
X242875000Y-84182500D03*
%TD*%
D39*
%TO.C,C9*%
X239875000Y-96432500D03*
X239875000Y-97567500D03*
%TD*%
D22*
%TO.C,R2*%
X240375000Y-84152500D03*
X240375000Y-85347500D03*
%TD*%
D14*
%TO.C,C3*%
X233375000Y-85317500D03*
X233375000Y-84182500D03*
%TD*%
D40*
%TO.C,Y1*%
X236475000Y-99650000D03*
X234275000Y-99650000D03*
X234275000Y-101350000D03*
X236475000Y-101350000D03*
%TD*%
D24*
%TO.C,SW1*%
X232525000Y-110000000D03*
X232525000Y-104000000D03*
X236225000Y-110000000D03*
X236225000Y-104000000D03*
%TD*%
D20*
%TO.C,C3*%
X139862500Y-95500000D03*
X138137500Y-95500000D03*
%TD*%
D41*
%TO.C,C17*%
X232442500Y-92200000D03*
X231307500Y-92200000D03*
%TD*%
D20*
%TO.C,C8*%
X49862500Y-89000000D03*
X48137500Y-89000000D03*
%TD*%
D17*
%TO.C,R8*%
X52000000Y-96912500D03*
X52000000Y-95087500D03*
%TD*%
D39*
%TO.C,C5*%
X231875000Y-99932500D03*
X231875000Y-101067500D03*
%TD*%
D32*
%TO.C,C5*%
X141250000Y-87862500D03*
X141250000Y-86137500D03*
%TD*%
D13*
%TO.C,C1*%
X243307500Y-87000000D03*
X244442500Y-87000000D03*
%TD*%
D16*
%TO.C,R6*%
X241875000Y-101097500D03*
X241875000Y-99902500D03*
%TD*%
D13*
%TO.C,C14*%
X240875000Y-71500000D03*
X242010000Y-71500000D03*
%TD*%
D32*
%TO.C,C2*%
X140000000Y-93362500D03*
X140000000Y-91637500D03*
%TD*%
D42*
%TO.C,U3*%
X243675000Y-73850000D03*
D43*
X241375000Y-80150000D03*
D42*
X241375000Y-73850000D03*
X239075000Y-73850000D03*
%TD*%
D22*
%TO.C,R7*%
X236875000Y-71402500D03*
X236875000Y-72597500D03*
%TD*%
D17*
%TO.C,R1*%
X137500000Y-93412500D03*
X137500000Y-91587500D03*
%TD*%
D39*
%TO.C,C7*%
X238375000Y-96432500D03*
X238375000Y-97567500D03*
%TD*%
D20*
%TO.C,C7*%
X49862500Y-87000000D03*
X48137500Y-87000000D03*
%TD*%
D14*
%TO.C,C12*%
X241625000Y-85317500D03*
X241625000Y-84182500D03*
%TD*%
D19*
%TO.C,R10*%
X131000000Y-102587500D03*
X131000000Y-104412500D03*
%TD*%
D22*
%TO.C,R4*%
X239125000Y-84152500D03*
X239125000Y-85347500D03*
%TD*%
D15*
%TO.C,C2*%
X53137500Y-84000000D03*
X54862500Y-84000000D03*
%TD*%
%TO.C,C1*%
X49137500Y-84000000D03*
X50862500Y-84000000D03*
%TD*%
D19*
%TO.C,R6*%
X148500000Y-98087500D03*
X148500000Y-99912500D03*
%TD*%
D21*
%TO.C,EN1*%
X145500000Y-104737500D03*
X145500000Y-101762500D03*
%TD*%
D19*
%TO.C,R5*%
X52000000Y-80087500D03*
X52000000Y-81912500D03*
%TD*%
D39*
%TO.C,C6*%
X238875000Y-99932500D03*
X238875000Y-101067500D03*
%TD*%
D19*
%TO.C,R3*%
X146250000Y-86087500D03*
X146250000Y-87912500D03*
%TD*%
D44*
%TO.C,C1*%
X143750000Y-98137500D03*
X143750000Y-99862500D03*
%TD*%
D45*
%TO.C,C7*%
X145500000Y-80800000D03*
X145500000Y-75200000D03*
%TD*%
D16*
%TO.C,R8*%
X236875000Y-97597500D03*
X236875000Y-96402500D03*
%TD*%
D20*
%TO.C,C6*%
X50862500Y-93000000D03*
X49137500Y-93000000D03*
%TD*%
M02*
